<svg xmlns="http://www.w3.org/2000/svg" width="39" height="38" fill="none" viewBox="0 0 39 38"><path fill="#000" d="M0 0V38H39V0H0ZM32.3999 9.00333L30.308 10.9575C30.2196 11.0232 30.1512 11.1112 30.1103 11.2119C30.0693 11.3126 30.0572 11.4223 30.0753 11.5292V25.8858C30.0377 26.1033 30.1275 26.3242 30.308 26.4575L32.3503 28.4117V28.8408H22.0769V28.4117L24.1928 26.41C24.4007 26.2075 24.4007 26.1475 24.4007 25.8383V14.2342L18.5173 28.7933H17.7219L10.8721 14.2342V23.9925C10.8148 24.4025 10.9551 24.8158 11.251 25.1125L14.0032 28.365V28.7942H6.1998V28.365L8.95204 25.1125C9.24625 24.815 9.37796 24.3992 9.30697 23.9925V12.7083C9.33947 12.395 9.21717 12.085 8.97684 11.8742L6.53079 9.0025V8.57333H14.1264L19.9978 21.1192L25.1593 8.57333H32.3999V9.00333Z"/></svg>