<svg xmlns="http://www.w3.org/2000/svg" width="53" height="45" fill="none" viewBox="0 0 53 45"><path fill="#364548" fill-rule="evenodd" d="M8.78599 36.406V33.0731C8.78599 32.6352 9.05975 32.2834 9.51317 32.2834H9.63865C10.0919 32.2834 10.3644 32.6358 10.3644 33.0731V40.0897C10.3644 41.8007 9.51908 43.1622 8.04598 44.0295C7.37118 44.4293 6.60091 44.6394 5.81657 44.6376H5.50349C3.79207 44.6376 2.43243 43.7916 1.56368 42.3195C1.16332 41.6448 0.953276 40.8743 0.955865 40.0897V39.7771C0.955865 38.0654 1.80159 36.7048 3.27347 35.8356C3.94815 35.435 4.71885 35.2249 5.50349 35.2276H5.81657C6.97476 35.2276 7.95534 35.6765 8.78599 36.4058V36.406ZM2.53407 39.9331C2.53407 41.1691 3.13293 42.0983 4.21616 42.6911C4.6541 42.9306 5.12952 43.0594 5.62917 43.0594C6.84236 43.0594 7.74227 42.489 8.36272 41.4589C8.65135 40.9807 8.78579 40.4574 8.78579 39.9011C8.78579 38.8297 8.27656 37.9935 7.41494 37.3725C6.89145 36.9961 6.30217 36.8072 5.65952 36.8072C4.33715 36.8072 3.3855 37.4753 2.81435 38.662C2.62166 39.0633 2.53366 39.489 2.53366 39.9331H2.53407ZM15.8401 35.2278H16.0588C17.8876 35.2278 19.2784 36.1149 20.1598 37.7112C20.5121 38.3498 20.7008 39.0468 20.7008 39.7771V40.0897C20.7008 41.8007 19.8571 43.1641 18.3817 44.0297C17.6987 44.4304 16.9443 44.6376 16.1527 44.6376H15.8401C14.1286 44.6376 12.7684 43.7916 11.9002 42.3195C11.4997 41.6449 11.2894 40.8743 11.2918 40.0897V39.7771C11.2918 38.0652 12.1412 36.709 13.6092 35.8362C14.2837 35.4344 15.055 35.224 15.8401 35.2278ZM12.8702 39.9331C12.8702 41.1349 13.4609 42.0154 14.4723 42.6361C14.9481 42.9274 15.4704 43.0594 16.0281 43.0594C17.2135 43.0594 18.0898 42.4585 18.6997 41.4577C18.9906 40.9807 19.1221 40.4566 19.1221 39.9011C19.1221 38.7855 18.5848 37.9334 17.6662 37.3156C17.174 36.9808 16.5916 36.8034 15.9963 36.8072C14.6739 36.8072 13.7223 37.4753 13.1513 38.662C12.9582 39.0633 12.8702 39.489 12.8702 39.9331ZM27.2623 36.9333C27.024 36.8217 26.5779 36.7846 26.3204 36.7748C25.0017 36.7251 24.0476 37.4678 23.4879 38.6311C23.2944 39.0324 23.2064 39.4571 23.2064 39.9011C23.2064 41.253 23.9162 42.1996 25.1211 42.7766C25.5619 42.9872 26.131 43.0272 26.6127 43.0272C27.0364 43.0272 27.6353 42.7677 28.0113 42.5892L28.0764 42.5583H28.3683L28.4005 42.5648C28.7594 42.6395 29.0303 42.8671 29.0303 43.2533V43.4095C29.0303 44.3705 27.2741 44.5905 26.604 44.6374C24.2411 44.8009 22.4704 43.5022 21.7962 41.2465C21.6791 40.8548 21.6263 40.4657 21.6263 40.0575V39.7453C21.6263 38.0337 22.4757 36.6777 23.9437 35.8059C24.6175 35.4024 25.3889 35.1911 26.1742 35.1948H26.487C27.3283 35.1948 28.1031 35.4337 28.7977 35.9081L28.8548 35.9476L28.8908 36.0071C28.9658 36.1293 29.0303 36.2752 29.0303 36.4231V36.5793C29.0303 36.9822 28.7289 37.1989 28.3651 37.269L28.3349 37.2743H28.2416C28.0062 37.2743 27.4707 37.0305 27.2605 36.9315L27.2623 36.9333ZM32.3819 38.0021L34.2324 36.1717C34.4056 36.0033 35.0623 35.2903 35.3208 35.2903H35.6035L35.6357 35.2971C35.9958 35.3718 36.2655 35.5997 36.2655 35.9868V36.1428C36.2655 36.4068 35.9563 36.7135 35.7858 36.8964C35.4232 37.2808 35.0415 37.6525 34.6704 38.029L32.7634 39.9649L35.2191 42.4405C35.445 42.6694 35.6691 42.9 35.8915 43.1323C35.9699 43.2148 36.0856 43.3156 36.1514 43.4317C36.2221 43.5388 36.2655 43.6598 36.2655 43.7886V43.9515L36.2563 43.9892C36.1677 44.3493 35.9392 44.6398 35.5401 44.6398H35.4145C35.1533 44.6398 34.8584 44.3444 34.6795 44.1754C34.3129 43.8279 33.955 43.4625 33.5939 43.1074L32.3819 41.9179V43.8191C32.3819 44.2571 32.1077 44.609 31.6547 44.609H31.5325C31.0791 44.609 30.8053 44.2571 30.8053 43.8191V33.1057C30.8053 32.6678 31.0793 32.3174 31.5325 32.3174H31.6547C32.1075 32.3174 32.3819 32.6678 32.3819 33.1057V38.0041V38.0021ZM52.0539 35.2903H52.2107C52.6841 35.2903 53 35.6093 53 36.0801C53 36.7335 52.3753 36.9009 51.8349 36.9009C51.126 36.9009 50.4492 37.3301 49.9605 37.8114C49.3494 38.4123 49.0846 39.1815 49.0846 40.0272V43.8485C49.0846 44.2864 48.8111 44.638 48.3575 44.638H48.2328C47.7792 44.638 47.5056 44.2866 47.5056 43.8485V39.808C47.5056 38.2565 48.2609 36.9899 49.5222 36.1016C50.2758 35.571 51.1354 35.2909 52.0557 35.2909L52.0539 35.2903ZM40.8357 42.8628C41.4101 43.0634 42.065 43.0347 42.6543 42.932C42.9557 42.8037 43.7265 42.4676 44.0101 42.5169L44.0543 42.5245L44.095 42.5444C44.2681 42.6283 44.4331 42.7471 44.5217 42.9233C44.7283 43.3362 44.6291 43.7513 44.2233 43.9857L44.0883 44.0638C42.5911 44.9278 40.9987 44.808 39.5062 44.001C38.7927 43.6152 38.2468 43.0427 37.8441 42.3446L37.75 42.1816C36.7886 40.5171 36.9185 38.7661 38.0026 37.183C38.3767 36.6359 38.8658 36.2135 39.4376 35.8827L39.6539 35.7578C41.0639 34.9439 42.5748 34.9997 44.0231 35.714C44.8018 36.0982 45.4326 36.6708 45.8673 37.4238L45.9455 37.5595C46.2613 38.1066 45.8522 38.5832 45.4302 38.9091C44.9401 39.2872 44.4453 39.7443 43.9758 40.1476L40.8361 42.8628H40.8357ZM39.4801 41.9107L44.2262 37.8294C43.9084 37.4289 43.3776 37.1403 42.9266 36.9681C42.0161 36.6213 41.1184 36.738 40.2835 37.2197C39.1907 37.8507 38.7253 38.8554 38.766 40.106C38.7823 40.5986 38.9147 41.0732 39.176 41.4921C39.2681 41.6398 39.371 41.7785 39.4822 41.9107H39.4801ZM30.9622 10.282H35.6198V15.0433H37.9745C39.0622 15.0433 40.1804 14.8498 41.2105 14.5007C41.7167 14.329 42.2846 14.0903 42.7838 13.7878C42.1263 12.9294 41.7906 11.8456 41.692 10.7772C41.5576 9.32387 41.8509 7.43259 42.8343 6.29497L43.324 5.72871L43.9074 6.19781C45.374 7.3778 46.6116 9.02913 46.8294 10.9068C48.598 10.3865 50.6747 10.5096 52.2333 11.4093L52.8729 11.7784L52.5364 12.4355C51.2185 15.0106 48.4617 15.8078 45.7669 15.6666C41.7344 25.7087 32.9551 30.4655 22.3103 30.4655C16.8106 30.4655 11.7652 28.4096 8.89191 23.5304L8.84506 23.4489L8.42648 22.5971C7.45527 20.4493 7.13262 18.0965 7.35139 15.7455L7.41718 15.0413H11.4V10.282H16.0574V5.62442H25.3728V0.966797H30.9622V10.282Z" clip-rule="evenodd"/><path fill="#22A0C8" fill-rule="evenodd" d="M46.0521 12.0436C46.3643 9.61639 44.548 7.71004 43.4216 6.80463C42.1235 8.30543 41.9218 12.2387 43.9583 13.8947C42.8217 14.9042 40.4269 15.8192 37.9747 15.8192H8.12461C7.88629 18.379 8.33563 20.7363 9.36203 22.7539L9.70159 23.3752C9.91659 23.7398 10.1515 24.0923 10.4053 24.4311C11.6326 24.51 12.7641 24.537 13.7993 24.5142H13.7997C15.8339 24.4694 17.4938 24.2291 18.7518 23.7932C18.8408 23.7655 18.937 23.7735 19.0201 23.8155C19.1032 23.8575 19.1668 23.9302 19.1973 24.0182C19.2278 24.1062 19.2229 24.2026 19.1836 24.287C19.1443 24.3715 19.0737 24.4373 18.9867 24.4706C18.8193 24.5289 18.6449 24.5831 18.4648 24.6346H18.4642C17.4737 24.9198 16.4114 25.1078 15.041 25.1923C15.1224 25.1937 14.9562 25.2045 14.9558 25.2045C14.909 25.2076 14.8505 25.2143 14.8037 25.2168C14.2643 25.2473 13.6821 25.2534 13.087 25.2534C12.436 25.2534 11.7949 25.2412 11.0781 25.2045L11.0578 25.2168C13.5428 28.0122 17.4337 29.6888 22.3085 29.6888C32.6251 29.6888 41.3757 25.1155 45.2507 14.8484C47.9998 15.1305 50.6419 14.4294 51.8436 12.0833C49.9293 10.9787 47.4675 11.3309 46.05 12.0434" clip-rule="evenodd"/><path fill="#37B1D9" fill-rule="evenodd" d="M46.0521 12.0436C46.3643 9.61639 44.548 7.71004 43.4216 6.80463C42.1235 8.30543 41.9218 12.2387 43.9583 13.8947C42.8217 14.9042 40.4269 15.8192 37.9747 15.8192H9.89225C9.77044 19.7395 11.2252 22.7152 13.7991 24.5142H13.7997C15.8339 24.4694 17.4938 24.2291 18.7518 23.7932C18.8408 23.7655 18.937 23.7735 19.0201 23.8155C19.1032 23.8575 19.1668 23.9302 19.1973 24.0182C19.2278 24.1062 19.2229 24.2026 19.1836 24.287C19.1443 24.3715 19.0737 24.4373 18.9867 24.4706C18.8193 24.5289 18.6449 24.5831 18.4648 24.6346H18.4642C17.4737 24.9198 16.3202 25.1322 14.9497 25.2168C14.9493 25.2168 14.9165 25.1852 14.9161 25.1852C18.4271 26.9862 23.518 26.9777 29.3548 24.7377C35.8994 22.2233 41.9898 17.4333 46.2409 11.9546C46.178 11.9829 46.1158 12.0125 46.0541 12.0434" clip-rule="evenodd"/><path fill="#1B81A5" fill-rule="evenodd" d="M8.18063 18.9296C8.36396 20.3009 8.76727 21.5847 9.36205 22.7541L9.7016 23.3754C9.91657 23.7401 10.1515 24.0926 10.4054 24.4313C11.6328 24.5102 12.7641 24.5372 13.7997 24.5144C15.834 24.4696 17.4938 24.2293 18.7518 23.7934C18.8408 23.7657 18.937 23.7737 19.0201 23.8157C19.1033 23.8577 19.1668 23.9304 19.1973 24.0184C19.2278 24.1064 19.2229 24.2028 19.1836 24.2872C19.1443 24.3717 19.0737 24.4375 18.9867 24.4708C18.8193 24.5291 18.6449 24.5833 18.4648 24.6348H18.4642C17.4737 24.92 16.3263 25.1202 14.9558 25.2052C14.909 25.208 14.8267 25.2086 14.7792 25.2113C14.2403 25.2414 13.664 25.2602 13.0686 25.2602C12.3907 25.2614 11.7129 25.2451 11.0358 25.2113C13.5208 28.0069 17.4358 29.6874 22.3105 29.6874C31.1426 29.6874 38.8267 26.335 43.2868 18.928H8.18063" clip-rule="evenodd"/><path fill="#1D91B4" fill-rule="evenodd" d="M10.1609 18.9296C10.6889 21.3372 11.9575 23.2275 13.7996 24.5144C15.8339 24.4696 17.4938 24.2292 18.7518 23.7933C18.8407 23.7657 18.9369 23.7737 19.0201 23.8157C19.1032 23.8577 19.1668 23.9303 19.1973 24.0184C19.2278 24.1064 19.2229 24.2028 19.1835 24.2872C19.1442 24.3716 19.0736 24.4375 18.9867 24.4708C18.8192 24.5291 18.6449 24.5832 18.4648 24.6348H18.4642C17.4736 24.9199 16.302 25.1202 14.9314 25.2051C18.4422 27.0058 23.5184 26.9799 29.3528 24.738C32.8836 23.3815 36.2817 21.3621 39.3304 18.9298H10.1609" clip-rule="evenodd"/><path fill="#23A3C2" fill-rule="evenodd" d="M12.176 11.0583H16.2128V15.0949H12.176V11.0583ZM12.5121 11.3948H12.8307V14.7568H12.5101V11.3948H12.5121ZM13.111 11.3948H13.4424V14.7568H13.111V11.3948ZM13.7225 11.3948H14.0539V14.7568H13.7225V11.3948ZM14.3343 11.3948H14.6656V14.7568H14.3343V11.3948ZM14.946 11.3948H15.2772V14.7568H14.9462V11.3948H14.946ZM15.5575 11.3948H15.8763V14.7568H15.5573V11.3948H15.5575ZM16.8334 6.4007H20.8706V10.4373H16.8334V6.4007ZM17.1699 6.7372H17.4883V10.101H17.1699V6.7374V6.7372ZM17.7688 6.7372H18.1V10.101H17.7694V6.7374L17.7688 6.7372ZM18.3803 6.7372H18.7115V10.101H18.3805V6.7374L18.3803 6.7372ZM18.992 6.7372H19.3232V10.101H18.992V6.7374V6.7372ZM19.6037 6.7372H19.9351V10.101H19.6037V6.7374V6.7372ZM20.2151 6.7372H20.5341V10.101H20.2151V6.7374V6.7372Z" clip-rule="evenodd"/><path fill="#34BBDE" fill-rule="evenodd" d="M16.8336 11.0583H20.8708V15.0949H16.8336V11.0583ZM17.1701 11.3948H17.4885V14.7567H17.1701V11.3948ZM17.769 11.3948H18.1002V14.7567H17.7694V11.3948H17.769ZM18.3805 11.3948H18.7117V14.7567H18.3805V11.3948ZM18.9922 11.3948H19.3234V14.7567H18.9922V11.3948ZM19.6039 11.3948H19.9353V14.7567H19.6039V11.3948ZM20.2153 11.3948H20.5343V14.7567H20.2153V11.3948Z" clip-rule="evenodd"/><path fill="#23A3C2" fill-rule="evenodd" d="M21.4915 11.0583H25.5283V15.0949H21.4915V11.0583ZM21.8276 11.3948H22.1459V14.7567H21.8276V11.3948ZM22.4264 11.3948H22.7576V14.7567H22.4264V11.3948ZM23.0381 11.3948H23.3693V14.7567H23.0381V11.3948ZM23.6498 11.3948H23.981V14.7567H23.652V11.3948H23.6498ZM24.2613 11.3948H24.5929V14.7567H24.2613V11.3948ZM24.873 11.3948H25.1916V14.7567H24.873V11.3948Z" clip-rule="evenodd"/><path fill="#34BBDE" fill-rule="evenodd" d="M21.4915 6.4007H25.5283V10.4373H21.4915V6.4007ZM21.8276 6.7372H22.1459V10.101H21.8276V6.7374V6.7372ZM22.4264 6.7372H22.7576V10.101H22.4264V6.7374V6.7372ZM23.0381 6.7372H23.3693V10.101H23.0381V6.7374V6.7372ZM23.6498 6.7372H23.981V10.101H23.652V6.7374L23.6498 6.7372ZM24.2613 6.7372H24.5929V10.101H24.2613V6.7374V6.7372ZM24.873 6.7372H25.1916V10.101H24.873V6.7374V6.7372ZM26.1489 11.0583H30.1857V15.0949H26.1493V11.0583H26.1489ZM26.4854 11.3948H26.8038V14.7568H26.4834V11.3948H26.4854ZM27.0843 11.3948H27.4155V14.7568H27.0843V11.3948ZM27.6957 11.3948H28.0269V14.7568H27.6957V11.3948ZM28.3074 11.3948H28.6388V14.7568H28.3074V11.3948ZM28.9191 11.3948H29.2505V14.7568H28.9191V11.3948ZM29.5308 11.3948H29.8494V14.7568H29.5308V11.3948Z" clip-rule="evenodd"/><path fill="#23A3C2" fill-rule="evenodd" d="M26.1493 6.4007H30.1861V10.4373H26.1493V6.4007ZM26.4858 6.7372H26.8042V10.101H26.4858V6.7374V6.7372ZM27.0847 6.7372H27.4159V10.101H27.0847V6.7374V6.7372ZM27.6962 6.7372H28.0274V10.101H27.6962V6.7374V6.7372ZM28.3078 6.7372H28.6393V10.101H28.3078V6.7374V6.7372ZM28.9195 6.7372H29.2509V10.101H28.9195V6.7374V6.7372ZM29.5312 6.7372H29.8498V10.101H29.5312V6.7374V6.7372Z" clip-rule="evenodd"/><path fill="#34BBDE" fill-rule="evenodd" d="M26.1493 1.74078H30.1861V5.77796H26.1493V1.74078ZM26.4858 2.07688H26.8042V5.44105H26.4858V2.07891V2.07688ZM27.0847 2.07688H27.4159V5.44105H27.0847V2.07891V2.07688ZM27.6962 2.07688H28.0274V5.44105H27.6962V2.07891V2.07688ZM28.3078 2.07688H28.6393V5.44105H28.3078V2.07891V2.07688ZM28.9195 2.07688H29.2509V5.44105H28.9195V2.07891V2.07688ZM29.5312 2.07688H29.8498V5.44105H29.5312V2.07891V2.07688Z" clip-rule="evenodd"/><path fill="#23A3C2" fill-rule="evenodd" d="M30.8067 11.0583H34.8435V15.0949H30.8067V11.0583ZM31.1428 11.3948H31.4616V14.7567H31.143V11.3948H31.1428ZM31.7417 11.3948H32.0731V14.7567H31.7419V11.3948H31.7417ZM32.3536 11.3948H32.685V14.7567H32.3536V11.3948ZM32.9651 11.3948H33.2965V14.7567H32.9651V11.3948ZM33.5769 11.3948H33.9081V14.7567H33.5769V11.3948ZM34.1884 11.3948H34.507V14.7567H34.1884V11.3948Z" clip-rule="evenodd"/><path fill="#D3ECEC" fill-rule="evenodd" d="M20.6179 21.6399C20.7654 21.638 20.9118 21.6653 21.0487 21.7204C21.1855 21.7755 21.3101 21.8573 21.4151 21.9609C21.5201 22.0645 21.6035 22.188 21.6603 22.3241C21.7172 22.4602 21.7465 22.6063 21.7465 22.7538C21.7465 22.9014 21.7171 23.0474 21.6602 23.1835C21.6032 23.3196 21.5198 23.443 21.4148 23.5466C21.3097 23.6502 21.1852 23.7319 21.0483 23.787C20.9114 23.842 20.765 23.8693 20.6174 23.8673C20.3247 23.8633 20.0453 23.7442 19.8397 23.5357C19.6341 23.3272 19.5189 23.0462 19.5189 22.7534C19.519 22.4606 19.6343 22.1796 19.84 21.9713C20.0456 21.7629 20.3251 21.6438 20.6179 21.6399Z" clip-rule="evenodd"/><path fill="#364548" fill-rule="evenodd" d="M20.6179 21.9558C20.7166 21.9557 20.8145 21.974 20.9065 22.0098C20.8446 22.0457 20.7963 22.1009 20.769 22.167C20.7417 22.2331 20.737 22.3064 20.7555 22.3755C20.774 22.4445 20.8147 22.5056 20.8714 22.5492C20.9281 22.5928 20.9975 22.6166 21.069 22.6168C21.1923 22.6168 21.2992 22.5485 21.3546 22.4477C21.4202 22.6057 21.4332 22.7806 21.3918 22.9466C21.3503 23.1126 21.2566 23.2609 21.1244 23.3695C20.9922 23.4782 20.8286 23.5414 20.6577 23.5499C20.4868 23.5584 20.3177 23.5117 20.1754 23.4167C20.0331 23.3217 19.9251 23.1835 19.8674 23.0224C19.8097 22.8614 19.8053 22.686 19.8549 22.5223C19.9045 22.3585 20.0054 22.2151 20.1428 22.1131C20.2802 22.0111 20.4468 21.956 20.6179 21.956V21.9558ZM0.920013 19.332H52.7244C51.5966 19.046 49.1557 18.6594 49.5582 17.181C47.507 19.5544 42.5608 18.8462 41.3124 17.676C39.9224 19.6921 31.8297 18.9257 31.2652 17.355C29.5225 19.4001 24.1224 19.4001 22.3796 17.355C21.8147 18.9234 13.7223 19.6921 12.3321 17.6758C11.0838 18.8462 6.13983 19.5544 4.08661 17.1812C4.48911 18.6594 2.04847 19.046 0.920013 19.3322" clip-rule="evenodd"/><path fill="#BDD9D7" fill-rule="evenodd" d="M23.5781 29.667C20.8201 28.3583 19.3067 26.579 18.4642 24.637C17.4396 24.9293 16.2083 25.1163 14.7774 25.1966C14.2384 25.2267 13.6713 25.2422 13.0766 25.2422C12.3905 25.2422 11.6676 25.2218 10.9087 25.1817C13.4379 27.7075 16.5493 29.6556 22.3105 29.691C22.7358 29.691 23.1579 29.6829 23.5781 29.667Z" clip-rule="evenodd"/><path fill="#D3ECEC" fill-rule="evenodd" d="M19.4886 26.4271C19.1071 25.9091 18.7349 25.2579 18.4648 24.6346C17.4403 24.9273 16.2085 25.1143 14.7774 25.1947C15.7604 25.7284 17.1661 26.2226 19.4888 26.4271" clip-rule="evenodd"/></svg>