<svg xmlns="http://www.w3.org/2000/svg" width="43" height="43" fill="none" viewBox="0 0 43 43"><path fill="#F03C2E" d="M41.6381 19.3302L23.1061 0.80025C22.0401 -0.26675 20.3091 -0.26675 19.2411 0.80025L15.3941 4.64825L20.2741 9.52825C21.4091 9.14525 22.7091 9.40325 23.6111 10.3053C24.0418 10.7366 24.3424 11.2805 24.4788 11.8746C24.6151 12.4687 24.5816 13.0892 24.3821 13.6652L29.0861 18.3692C30.2111 17.9772 31.5361 18.2323 32.4461 19.1392C32.8504 19.5427 33.1412 20.0456 33.2893 20.5972C33.4374 21.1489 33.4374 21.7298 33.2895 22.2815C33.1416 22.8332 32.8509 23.3362 32.4466 23.7397C32.0424 24.1433 31.539 24.4332 30.9871 24.5802C30.4357 24.7281 29.8551 24.7282 29.3037 24.5803C28.7523 24.4325 28.2495 24.1421 27.8461 23.7383C26.8911 22.7823 26.6561 21.3783 27.1391 20.2013L22.7641 15.8263V27.3713C23.0641 27.5252 23.3661 27.7282 23.6241 27.9862C24.8941 29.2562 24.8941 31.3143 23.6241 32.5863C23.3222 32.8885 22.9638 33.1282 22.5692 33.2918C22.1746 33.4554 21.7517 33.5396 21.3246 33.5396C20.8974 33.5396 20.4745 33.4554 20.0799 33.2918C19.6854 33.1282 19.3269 32.8885 19.0251 32.5863C17.7551 31.3132 17.7551 29.2562 19.0251 27.9862C19.3298 27.6817 19.6918 27.4404 20.0901 27.2762V15.6262C19.7151 15.4662 19.3401 15.2323 19.0251 14.9263C18.5687 14.4701 18.2584 13.8885 18.1337 13.2553C18.009 12.6222 18.0757 11.9664 18.3251 11.3713L13.5131 6.55825L0.798065 19.2432C0.286946 19.7567 0 20.4517 0 21.1763C0 21.9008 0.286946 22.5958 0.798065 23.1092L19.3311 41.6392C20.3971 42.7062 22.1281 42.7062 23.1961 41.6392L41.6381 23.1963C42.1492 22.6828 42.4361 21.9878 42.4361 21.2633C42.4361 20.5387 42.1492 19.8437 41.6381 19.3302Z"/></svg>