<svg xmlns="http://www.w3.org/2000/svg" width="38" height="51" fill="none" viewBox="0 0 38 51"><path fill="#4E7896" d="M12.0795 38.6576C12.0795 38.6576 10.1575 39.8265 13.4155 40.1609C17.3377 40.6609 19.4269 40.5781 23.7679 39.7437C24.6403 40.2779 25.563 40.7254 26.5228 41.0797C16.7564 45.255 4.39608 40.8297 12.0779 38.6576H12.0795ZM10.8294 33.2306C10.8294 33.2306 8.74172 34.8167 11.9982 35.1527C16.2564 35.5699 19.5957 35.6527 25.3586 34.4854C25.9191 35.0538 26.6053 35.4826 27.3619 35.7371C15.5891 39.2436 2.39748 36.0715 10.8294 33.2322V33.2306ZM33.8734 42.747C33.8734 42.747 35.2922 43.9159 32.2873 44.8347C26.6931 46.5067 8.82611 47.0067 3.81634 44.8347C2.06308 44.0846 5.4024 42.9986 6.4728 42.8314C7.55882 42.5814 8.1448 42.5814 8.1448 42.5814C6.22278 41.2453 -4.62962 45.3363 2.635 46.5036C22.5897 49.7601 39.0378 45.0847 33.8609 42.747H33.8734ZM12.9827 27.5521C12.9827 27.5521 3.88197 29.7241 9.72618 30.4742C12.2311 30.8086 17.1564 30.7242 21.749 30.3914C25.5055 30.057 29.2652 29.3913 29.2652 29.3913C29.2652 29.3913 27.9291 29.9757 27.0103 30.5601C17.744 32.9822 -0.0417679 31.8962 5.05238 29.3913C9.39334 27.3036 12.9842 27.5552 12.9842 27.5552L12.9827 27.5521ZM29.2652 36.6528C38.6159 31.8087 34.275 27.1364 31.2685 27.7193C30.5184 27.8865 30.1824 28.0537 30.1824 28.0537C30.1824 28.0537 30.4325 27.5536 31.0169 27.3864C36.9455 25.2988 41.6208 33.6479 29.0949 36.9028C29.0949 36.9028 29.1777 36.82 29.2621 36.6528H29.2652ZM13.9046 49.8444C22.9209 50.4289 36.6986 49.51 37.0314 45.2503C37.0314 45.2503 36.3642 46.9223 29.6012 48.1724C21.9193 49.5913 12.4014 49.4225 6.8072 48.5068C6.8072 48.5068 7.97604 49.5069 13.9046 49.8429V49.8444Z"/><g filter="url(#filter0_d)"><path fill="#F58219" d="M23.6023 0C23.6023 0 28.7792 5.25978 18.6769 13.1916C10.5778 19.6203 16.8408 23.294 18.6769 27.4693C13.9171 23.2112 10.495 19.4531 12.8327 15.9481C16.2548 10.7696 25.6899 8.28033 23.6023 0ZM20.9458 23.9628C23.3679 26.7177 20.2786 29.2226 20.2786 29.2226C20.2786 29.2226 26.4572 26.0505 23.6179 22.1252C21.0302 18.3686 19.0238 16.531 29.8793 10.2695C29.8793 10.2695 12.7639 14.5277 20.9458 23.9628Z"/></g><defs><filter id="filter0_d" width="25.8" height="37.223" x="8.079" y="0" color-interpolation-filters="sRGB" filterUnits="userSpaceOnUse"><feFlood flood-opacity="0" result="BackgroundImageFix"/><feColorMatrix in="SourceAlpha" type="matrix" values="0 0 0 0 0 0 0 0 0 0 0 0 0 0 0 0 0 0 127 0"/><feOffset dy="4"/><feGaussianBlur stdDeviation="2"/><feColorMatrix type="matrix" values="0 0 0 0 0 0 0 0 0 0 0 0 0 0 0 0 0 0 0.25 0"/><feBlend in2="BackgroundImageFix" mode="normal" result="effect1_dropShadow"/><feBlend in="SourceGraphic" in2="effect1_dropShadow" mode="normal" result="shape"/></filter></defs></svg>