<svg xmlns="http://www.w3.org/2000/svg" width="51" height="40" fill="none" viewBox="0 0 51 40"><path fill="#EF533F" d="M27.8214 24.2786C27.7248 24.2788 27.6298 24.2543 27.5457 24.2074C27.4616 24.1606 27.3913 24.093 27.3417 24.0114L23.1237 17.0798L15.2351 19.1936C15.115 19.2222 14.9886 19.2106 14.8758 19.1607C14.763 19.1108 14.6703 19.0254 14.6121 18.918L5.39334 1.8451C5.351 1.7669 5.32849 1.67977 5.32772 1.59115C5.32695 1.50252 5.34794 1.41503 5.38891 1.33613C5.42988 1.25723 5.48961 1.18926 5.563 1.13801C5.6364 1.08677 5.72129 1.05378 5.81042 1.04185L13.6372 0.00523136C13.7453 -0.0095737 13.8555 0.0072091 13.954 0.0535007C14.0526 0.0997922 14.1352 0.173557 14.1916 0.265653L23.6317 15.8013L34.6115 12.8589L30.9504 7.76462C30.8976 7.69221 30.8635 7.60822 30.851 7.51992C30.8385 7.43161 30.8479 7.34163 30.8786 7.25773C30.9093 7.17384 30.9602 7.09856 31.027 7.03839C31.0938 6.97821 31.1744 6.93495 31.2619 6.91233L36.3982 5.71591C36.5009 5.69185 36.6083 5.69696 36.7081 5.73063C36.8079 5.7643 36.896 5.82516 36.9621 5.90616L41.4075 11.375C41.4655 11.4462 41.5045 11.5305 41.5211 11.6202C41.5377 11.71 41.5314 11.8024 41.5027 11.8892C41.474 11.9759 41.4239 12.0542 41.3568 12.1171C41.2896 12.18 41.2077 12.2254 41.1183 12.2493L36.4497 13.5041L40.5373 19.1691C40.5874 19.2386 40.6204 19.3186 40.6337 19.4028C40.6469 19.487 40.6402 19.5731 40.6139 19.6543C40.5876 19.7355 40.5424 19.8096 40.4821 19.8706C40.4217 19.9317 40.3478 19.9781 40.2661 20.0061L27.9982 24.2448C27.9413 24.2655 27.8821 24.2769 27.8214 24.2786ZM24.241 16.7788L28.0643 23.061L39.2063 19.2181L35.3152 13.8135L24.241 16.7788ZM6.7553 2.01843L15.3827 18.0158L22.5427 16.1015L13.4243 1.14246L6.7553 2.01843ZM32.3579 7.79675L35.7906 12.5537L40.049 11.4122L36.3442 6.86667L32.3579 7.79675ZM0 27.993H1.11565V39.7796H0.0042876L0 27.993ZM12.0147 31.2762V39.7796H10.9188V38.3084C10.494 38.8326 9.95936 39.2621 9.35176 39.5665C8.52491 39.956 7.59484 40.0798 6.69272 39.9207C5.7906 39.7616 4.96193 39.3275 4.32359 38.6796C3.90145 38.2618 3.56906 37.7646 3.34627 37.2175C3.12347 36.6704 3.01485 36.0847 3.02686 35.4953C3.01777 34.9116 3.12909 34.3321 3.35405 33.7921C3.57902 33.252 3.91295 32.7625 4.3356 32.3534C4.74185 31.9328 5.23214 31.5998 5.77556 31.3752C6.31897 31.1507 6.90371 31.0395 7.49291 31.0487C8.1623 31.0403 8.82311 31.1924 9.41698 31.4943C10.0201 31.8167 10.5378 32.2744 10.9283 32.8302V31.2745L12.0147 31.2762ZM7.57787 32.1217C6.97409 32.1178 6.38045 32.2745 5.85951 32.5752C5.33857 32.876 4.90964 33.3096 4.61795 33.8305C3.99748 34.8942 3.99748 36.2022 4.61795 37.2659C4.91231 37.7943 5.3457 38.2348 5.87263 38.5409C6.38367 38.8415 6.96811 38.9993 7.56328 38.9975C8.16915 38.9977 8.76449 38.8414 9.28997 38.5443C9.81605 38.2594 10.2511 37.8341 10.5447 37.3183C10.844 36.7828 10.9958 36.1793 10.9849 35.568C10.9976 35.1125 10.9167 34.6591 10.7471 34.2351C10.5775 33.8112 10.3227 33.4253 9.99798 33.1008C9.68486 32.7817 9.30817 32.5298 8.89157 32.3608C8.47496 32.1919 8.02742 32.1096 7.57701 32.1191L7.57787 32.1217ZM14.0933 31.2762H15.2278V32.5191C15.5118 32.09 15.8758 31.7179 16.3006 31.4224C16.6466 31.1891 17.0553 31.0625 17.4746 31.0589C17.8234 31.0701 18.1634 31.17 18.4615 31.3489L17.8796 32.2789C17.6916 32.1902 17.4872 32.1399 17.2789 32.131C16.8772 32.1431 16.4946 32.3033 16.207 32.58C15.814 32.9608 15.54 33.4447 15.4175 33.9742C15.2859 34.459 15.2201 35.4381 15.2201 36.9116V39.7889H14.0856L14.0933 31.2762ZM27.9961 31.2762V39.7796H26.901V38.3084C26.4762 38.8326 25.9415 39.2621 25.3339 39.5665C24.5071 39.956 23.577 40.0798 22.6749 39.9207C21.7728 39.7616 20.9441 39.3275 20.3058 38.6796C19.8836 38.2618 19.5512 37.7646 19.3284 37.2175C19.1057 36.6704 18.997 36.0847 19.009 35.4953C18.9919 34.3158 19.4639 33.1786 20.3195 32.3534C20.7257 31.9328 21.216 31.5998 21.7595 31.3752C22.3029 31.1507 22.8876 31.0395 23.4768 31.0487C24.1462 31.0403 24.807 31.1924 25.4009 31.4943C26.004 31.8167 26.5217 32.2744 26.9122 32.8302V31.2745L27.9961 31.2762ZM23.5592 32.1217C22.9554 32.1178 22.3618 32.2745 21.8408 32.5752C21.3199 32.876 20.891 33.3096 20.5993 33.8305C19.9788 34.8942 19.9788 36.2022 20.5993 37.2659C20.8936 37.7943 21.327 38.2348 21.854 38.5409C22.365 38.8415 22.9494 38.9993 23.5446 38.9975C24.1505 38.9977 24.7458 38.8414 25.2713 38.5443C25.7974 38.2594 26.2325 37.8341 26.526 37.3183C26.8253 36.7828 26.9771 36.1793 26.9662 35.568C26.9802 35.1111 26.9 34.6562 26.7305 34.2307C26.5611 33.8052 26.3058 33.4179 25.9802 33.0923C25.6672 32.7734 25.2908 32.5216 24.8745 32.3527C24.4582 32.1838 24.011 32.1014 23.5609 32.1107L23.5592 32.1217ZM29.6807 31.2762H30.865L33.7623 37.4739L36.6287 31.2762H37.813L33.8653 39.7805H33.6679L29.6807 31.2762ZM46.7648 36.9581L47.7088 37.4426C47.4442 37.9808 47.0841 38.4682 46.6455 38.8817C46.2509 39.2416 45.7901 39.524 45.2878 39.7137C44.7415 39.9114 44.1629 40.0083 43.5809 39.9994C42.1735 39.9994 41.0721 39.5485 40.2768 38.6466C39.5089 37.7982 39.087 36.6997 39.0925 35.563C39.0814 34.5162 39.4375 33.4974 40.1009 32.6882C40.4987 32.1695 41.0171 31.7525 41.6125 31.4723C42.208 31.1922 42.863 31.057 43.5225 31.0783C44.2009 31.0564 44.8747 31.1946 45.4879 31.4814C46.101 31.7682 46.6356 32.1953 47.0471 32.7271C47.6719 33.505 47.9866 34.4773 47.9912 35.6441H40.2202C40.2073 36.5463 40.5523 37.4172 41.1814 38.0725C41.4754 38.3797 41.8315 38.6227 42.2268 38.7858C42.6221 38.9489 43.0477 39.0285 43.4762 39.0195C43.9141 39.0198 44.3485 38.9434 44.7592 38.7937C45.1461 38.6584 45.5051 38.4556 45.8191 38.1951C46.1946 37.8379 46.5132 37.4269 46.7639 36.9758L46.7648 36.9581ZM46.7648 34.6752C46.6531 34.169 46.4324 33.6924 46.1177 33.2775C45.8153 32.914 45.431 32.625 44.9952 32.4337C44.5378 32.2223 44.0383 32.1124 43.5328 32.1124C42.7272 32.0964 41.9459 32.3843 41.3487 32.9173C40.9042 33.3119 40.5681 33.8953 40.3403 34.6676L46.7648 34.6752ZM49.8886 28.0023H51V39.7889H49.8886V28.0023Z"/></svg>