<svg xmlns="http://www.w3.org/2000/svg" width="57" height="60" fill="none" viewBox="0 0 57 60"><path fill="#47474A" d="M2.1297 53.0493V54.5268C2.12805 54.5853 2.13138 54.6439 2.13966 54.7018C2.15887 54.8768 2.26629 54.9835 2.42422 55.0326C2.57157 55.0714 2.72127 55.1006 2.87239 55.1201C2.95989 55.1301 2.98906 55.1685 2.99902 55.2624C3.00898 55.5932 2.97981 55.6323 2.65897 55.6124C1.91059 55.5733 1.1615 55.564 0.413114 55.6124H0.341974C0.108637 55.6224 0.0894301 55.6024 0.0894301 55.3691C0.0894301 55.33 0.0993895 55.2816 0.0993895 55.2425C0.0993895 55.1713 0.147765 55.1358 0.216059 55.1358C0.372565 55.1166 0.517686 55.0774 0.664233 55.0483C0.868402 54.9999 0.984359 54.8733 1.00428 54.6691C1.03273 54.4457 1.03273 54.2124 1.03273 53.9883L1.04269 51.3832C1.0459 51.3076 1.02754 51.2327 0.989743 51.1672C0.951951 51.1017 0.896294 51.0483 0.829277 51.0133C0.65335 50.9155 0.467289 50.8373 0.274393 50.7799C0.216059 50.7607 0.157724 50.7515 0.109349 50.7216C-0.0329292 50.6533 -0.0364861 50.5274 0.0993895 50.4491C0.147764 50.4207 0.2061 50.4007 0.264434 50.3908C0.854422 50.3037 1.43408 50.1571 1.99454 49.9533C2.1112 49.9142 2.14037 49.9248 2.15104 50.0408C2.161 50.1119 2.15104 50.1973 2.14108 50.2642C2.12187 50.3908 2.12188 50.5167 2.12188 50.6341C2.12188 50.6825 2.13183 50.7315 2.18021 50.7607C2.22858 50.7899 2.27767 50.7607 2.32249 50.7323C2.52666 50.5757 2.73082 50.4306 2.9542 50.3054C3.27433 50.1304 3.6158 49.9746 3.98572 49.9262C4.43389 49.8679 4.8216 49.9846 5.16236 50.2763C5.30325 50.4024 5.42734 50.546 5.53157 50.7038C5.62903 50.8461 5.63828 50.8496 5.76491 50.7522C6.13483 50.4797 6.52325 50.2371 6.94155 50.0621C7.37905 49.8772 7.82652 49.8487 8.27327 50.0038C8.72998 50.1688 9.04157 50.4897 9.22654 50.9272C9.38304 51.2772 9.44991 51.6386 9.44991 52.0156V54.6207C9.44991 54.7957 9.52105 54.9053 9.69321 54.9906C9.87817 55.0618 10.0823 55.0973 10.2765 55.1365C10.4032 55.1649 10.4032 55.1649 10.4032 55.293C10.384 55.6131 10.3548 55.633 10.0432 55.6131C9.26295 55.5694 8.48086 55.5694 7.7006 55.6131C7.5441 55.6231 7.54409 55.6231 7.53556 55.4673V55.4189C7.5256 55.1557 7.5256 55.1557 7.77885 55.0988L8.0314 55.0305C8.11696 55.0103 8.19324 54.962 8.24796 54.8932C8.30268 54.8244 8.33265 54.7392 8.33303 54.6513L8.36148 53.9221L8.34228 52.017C8.33482 51.8469 8.29874 51.6793 8.23557 51.5212C7.99227 50.9279 7.45802 50.7145 6.94226 50.7728C6.55313 50.8119 6.21308 50.967 5.89225 51.1911C5.82395 51.2395 5.77558 51.2978 5.78554 51.3953C5.87304 52.0177 5.81399 52.6402 5.82466 53.262V54.6136C5.82466 54.8569 5.92212 54.9736 6.15546 55.0319L6.60364 55.1294C6.67193 55.1393 6.71034 55.1685 6.71034 55.246V55.3172C6.70038 55.5896 6.68189 55.6017 6.40871 55.5989C5.63116 55.5598 4.8529 55.5704 4.08531 55.5989C3.8221 55.6088 3.80076 55.5797 3.81285 55.3143C3.82281 55.1578 3.84131 55.1493 3.98785 55.1201L4.30798 55.0618C4.59253 55.0034 4.69711 54.8967 4.71632 54.5951L4.74477 53.9435L4.72557 51.9893C4.70636 51.746 4.65442 51.5126 4.52139 51.2893C4.32719 50.9293 4.02342 50.7451 3.60726 50.7251C3.18896 50.6967 2.81975 50.8518 2.46903 51.0453C2.22574 51.1875 2.11903 51.3561 2.13824 51.6386V53.0578L2.1297 53.0493ZM20.4459 53.1083V54.4792C20.4474 54.5766 20.4538 54.674 20.4651 54.7708C20.4692 54.8354 20.4942 54.8968 20.5363 54.946C20.5784 54.9951 20.6353 55.0292 20.6984 55.0433C20.8662 55.0922 21.039 55.1215 21.2135 55.1308C21.3109 55.1407 21.3301 55.1792 21.3401 55.2574V55.3257C21.3301 55.6658 21.2917 55.7049 20.9609 55.6857C20.2211 55.6373 19.4834 55.6465 18.7442 55.6857L18.4597 55.6956C18.4013 55.6956 18.3885 55.6672 18.3722 55.6273C18.3438 55.4927 18.3438 55.3536 18.3722 55.219C18.3821 55.1607 18.4206 55.1479 18.4789 55.1315C18.6212 55.1123 18.7421 55.0831 18.8773 55.0604C19.1206 55.002 19.2081 54.9039 19.2173 54.652L19.2458 53.8353V51.4436C19.2458 51.2686 19.1775 51.1619 19.0224 51.0837C18.8474 50.9862 18.6624 50.9186 18.4675 50.8503C18.4092 50.8311 18.3508 50.8112 18.3025 50.7821C18.1758 50.6946 18.1602 50.5686 18.2833 50.4712C18.3384 50.4258 18.4062 50.3985 18.4775 50.3929C19.0999 50.2955 19.7025 50.1596 20.2858 49.9262C20.3541 49.8978 20.3833 49.9163 20.4124 49.9746C20.4416 50.033 20.4516 50.1012 20.4409 50.1688L20.4124 50.6255C20.4124 50.6839 20.384 50.7678 20.4317 50.7906C20.49 50.8297 20.5291 50.7422 20.5775 50.7194C20.8645 50.4787 21.1816 50.2761 21.5208 50.1169C21.8224 49.9746 22.1326 49.8836 22.4833 49.9035C23.1349 49.9426 23.6016 50.2734 23.9025 50.8468C24.059 51.1484 24.1259 51.4785 24.1551 51.8193L24.1835 52.5307L24.1935 54.6791C24.2034 54.8441 24.2618 54.9515 24.4268 55.0099C24.5979 55.0669 24.7736 55.1092 24.9518 55.1365C25.1083 55.1557 25.1169 55.1848 25.1268 55.3307V55.3791C25.1076 55.7099 25.0877 55.7191 24.7569 55.6992C24.0316 55.6603 23.3047 55.6603 22.5793 55.6992C22.4819 55.7091 22.3851 55.6992 22.2948 55.7091C22.2364 55.7091 22.1973 55.6992 22.1881 55.6409C22.1689 55.5142 22.149 55.3883 22.1781 55.2517C22.1881 55.1934 22.2172 55.1642 22.2848 55.1543L22.733 55.0831C22.8895 55.044 22.9763 54.9408 22.9962 54.7986L23.0154 54.5261L23.0055 52.4944C23.0055 52.261 22.9955 52.0277 22.9471 51.7944C22.8305 51.2964 22.4513 50.9407 21.937 50.8909C21.4888 50.8425 21.0833 50.9592 20.7119 51.2018C20.527 51.3184 20.4487 51.4835 20.4487 51.6877V53.156C20.4487 53.1275 20.4487 53.1275 20.4587 53.1275L20.4459 53.1083Z"/><path fill="#C2BFBF" d="M48.92 50.3567C48.8133 49.6467 48.5501 49.015 48.0934 48.4608C47.6954 47.9712 47.1804 47.59 46.5959 47.3525C45.9841 47.0999 45.3318 47.0217 44.6709 47.0025C44.3984 46.9925 40.6849 47.0508 40.4125 47.0025C40.3442 46.9925 40.2958 47.0124 40.256 47.0707C40.2076 47.1419 40.1585 47.2166 40.1294 47.2941C40.0127 47.5573 40.0127 47.5374 40.2944 47.5758C40.5277 47.615 40.7511 47.6342 40.9752 47.7025C41.1794 47.7708 41.3252 47.8874 41.3736 48.1108C41.3928 48.2175 41.4127 51.6393 41.4127 53.2342L41.3736 54.3725C41.3636 54.46 41.3544 54.5475 41.3252 54.625C41.2861 54.7417 41.2185 54.8384 41.1018 54.8882C40.9734 54.9486 40.835 54.9848 40.6935 54.9949C40.4303 55.0234 40.3919 55.0341 40.3044 55.3257L40.2759 55.4324C40.2567 55.5591 40.2659 55.5783 40.3926 55.5783L43.2993 55.6067L44.4375 55.5875L45.225 55.4901C46.1193 55.325 46.9167 54.9551 47.5968 54.3625C47.9853 54.0194 48.3025 53.6031 48.5302 53.1375C48.8026 52.5933 48.9193 51.9993 48.9485 51.3974C48.9968 51.0574 48.9769 50.7074 48.92 50.3574V50.3567ZM47.51 51.7368C47.4709 52.3592 47.345 52.9618 47.0242 53.506C46.6158 54.216 46.0325 54.7118 45.2258 54.8861C44.8758 54.9572 44.5257 54.9928 44.1587 54.9444C43.8955 54.916 43.6436 54.8861 43.4003 54.7986C42.9628 54.6421 42.807 54.3718 42.7978 53.9449L42.7878 48.0831C42.7878 47.7331 42.9443 47.6562 43.1962 47.6456C43.5753 47.6171 43.9645 47.6263 44.3436 47.6648C44.7473 47.7038 45.1434 47.7996 45.5203 47.9493C45.8003 48.066 46.0597 48.2269 46.2886 48.4259C46.8136 48.8741 47.1636 49.4361 47.3557 50.0977C47.5122 50.6327 47.5406 51.1769 47.5122 51.7211L47.51 51.7368ZM57 52.69C57 52.6317 57 52.5833 56.99 52.525C56.9025 51.99 56.6201 51.5817 56.1833 51.2708C55.9016 51.0666 55.5808 50.9308 55.25 50.8333C55.1916 50.8141 55.1433 50.7942 55.0849 50.7849C55.0949 50.7365 55.1241 50.7266 55.1532 50.7166C55.3474 50.6192 55.5324 50.5125 55.6974 50.3666C55.9991 50.1141 56.1954 49.8025 56.3 49.4233C56.3583 49.2191 56.3583 49.015 56.3391 48.8008C56.3233 48.5504 56.2512 48.3066 56.1283 48.0878C56.0054 47.869 55.8348 47.6806 55.6291 47.5367C55.181 47.2059 54.6567 47.07 54.1125 47.0601C53.0624 47.0409 52.0032 47.0601 50.9539 47.0601C50.6523 47.0601 50.3513 47.0793 50.0397 47.0316C49.9814 47.0217 49.8975 47.0032 49.8548 47.0707C49.7836 47.1974 49.6983 47.3233 49.6698 47.4691C49.6599 47.5374 49.6798 47.5758 49.7573 47.5858L50.4282 47.6833C50.6914 47.7224 50.8763 47.8682 50.8948 48.1016C50.9139 48.2628 50.9234 48.4251 50.9233 48.5874L50.9041 50.405L50.8941 54.0018C50.8941 54.2152 50.8657 54.4201 50.8258 54.6335C50.8163 54.7013 50.7873 54.7649 50.7425 54.8166C50.6977 54.8683 50.639 54.906 50.5733 54.9252C50.3791 54.9835 50.1941 55.0419 49.99 55.0419C49.9354 55.0367 49.8807 55.0502 49.8348 55.0802C49.7889 55.1102 49.7546 55.1549 49.7374 55.2069C49.6983 55.2944 49.6663 55.3919 49.6499 55.4794C49.6307 55.5961 49.6599 55.6359 49.7765 55.6217C49.864 55.6117 53.0724 55.69 53.675 55.6316C54.0349 55.5925 54.3863 55.5441 54.7442 55.4374C55.356 55.2432 55.9208 54.9608 56.3676 54.4842C56.7375 54.095 56.9509 53.6283 56.9701 53.0841C56.9986 52.9575 56.9986 52.8316 56.9986 52.695L57 52.69ZM52.2849 48.7062L52.3134 47.9287C52.3134 47.7828 52.3717 47.7153 52.5175 47.6854C52.7509 47.637 52.9842 47.6569 53.2175 47.6662C53.4509 47.6854 53.6742 47.7146 53.9076 47.7828C54.3344 47.9095 54.6659 48.1528 54.8608 48.5604C54.9493 48.7457 54.9957 48.9483 54.9967 49.1537C55.0067 49.4262 54.9868 49.6887 54.88 49.9505C54.715 50.3104 54.4532 50.5438 54.0733 50.6121C53.6935 50.6803 52.615 50.6512 52.4499 50.6512C52.3041 50.6512 52.2934 50.632 52.2934 50.4861V49.5706C52.2706 49.2859 52.2672 48.9999 52.2835 48.7148L52.2849 48.7062ZM55.4435 53.9364C55.2784 54.3739 54.9768 54.6762 54.5493 54.8398C54.3159 54.9273 54.0826 54.9821 53.8379 54.9665C53.5362 54.9565 53.2353 54.9665 52.9344 54.9081C52.5261 54.8206 52.3411 54.4315 52.3119 54.1498C52.2636 53.654 52.2927 53.1482 52.2835 52.7789V51.4956C52.2835 51.3391 52.3027 51.2914 52.4684 51.2914L53.3826 51.3014L54.005 51.3725C54.4425 51.47 54.8409 51.6357 55.1525 51.9751C55.4051 52.2475 55.5416 52.5776 55.5708 52.9376C55.5993 53.2776 55.5808 53.6084 55.4541 53.9293L55.4435 53.9364Z"/><path fill="#47474A" d="M30.7418 51.0076L30.9944 51.0467C31.2668 51.0566 31.5877 50.9592 31.6844 50.58C31.7378 50.3989 31.7378 50.2062 31.6844 50.0251C31.6261 50.0251 31.5969 50.0735 31.5678 50.0934C31.4219 50.2101 31.2569 50.2784 31.0819 50.2976C30.7319 50.3367 30.3819 50.3168 30.0418 50.1909L29.5652 50.0258C29.2328 49.917 28.8829 49.8711 28.5337 49.8907C28.0378 49.9298 27.5712 50.0948 27.1337 50.3282C26.667 50.5807 26.3369 50.9599 26.1804 51.4757C26.0929 51.7773 26.0829 52.0875 26.1221 52.399C26.2195 53.109 26.5887 53.6049 27.2496 53.8674C27.2887 53.8773 27.3179 53.8958 27.3563 53.9065C27.4438 53.9549 27.4538 54.0039 27.3755 54.0715L27.1322 54.2366L26.5489 54.5965C26.4031 54.684 26.3839 54.753 26.4322 54.9074C26.4901 55.089 26.5978 55.2507 26.7431 55.3741C26.8765 55.4885 27.0276 55.5806 27.1906 55.6465C27.2973 55.6949 27.2973 55.7177 27.2005 55.803L26.6457 56.2014C26.4607 56.3437 26.2757 56.486 26.1206 56.6681C26.0128 56.7835 25.9351 56.9237 25.8944 57.0764C25.8537 57.229 25.8512 57.3893 25.8873 57.5431C25.9596 57.8806 26.1363 58.1867 26.3924 58.4181C26.6452 58.6522 26.9526 58.8193 27.2866 58.904C27.8308 59.0605 28.395 59.069 28.9491 58.9623C29.7459 58.8165 30.4431 58.4644 30.9908 57.8639C31.37 57.4656 31.5934 56.9989 31.6133 56.4412C31.6345 56.1186 31.5407 55.799 31.3484 55.5391C31.1561 55.2793 30.8779 55.096 30.5633 55.0219L30.0383 54.9245L28.4341 54.7822C28.2591 54.7722 28.0841 54.7431 27.9382 54.6556C27.7533 54.5389 27.7049 54.3155 27.8216 54.1697C27.9091 54.063 28.0158 53.9947 28.1524 53.9847L28.4633 53.9563C29.0781 53.8937 29.6552 53.6308 30.1059 53.2079C30.3465 52.9852 30.5185 52.6984 30.6017 52.3813C30.7184 51.963 30.7184 51.5276 30.6209 51.1008C30.5924 50.994 30.6017 50.9841 30.7376 51.0033L30.7418 51.0076ZM28.3587 55.85C28.417 55.86 28.4753 55.85 28.5337 55.85C28.942 55.8692 29.3603 55.8984 29.7587 56.0065C29.8888 56.0449 30.0156 56.0937 30.1379 56.1523C30.527 56.3658 30.6728 56.7357 30.6237 57.1341C30.5654 57.5716 30.3221 57.8824 29.943 58.0873C29.6904 58.2296 29.408 58.2915 29.1163 58.3207C29.0096 58.3306 28.9121 58.3207 28.8054 58.3207C28.4654 58.3306 28.1346 58.2922 27.8138 58.1556C27.5904 58.0681 27.4054 57.9422 27.2404 57.7665C26.9003 57.4264 26.7424 56.804 27.2503 56.2982C27.5612 56.0136 27.9119 55.8123 28.3587 55.85ZM29.467 52.8166C29.2629 53.3317 28.8154 53.4875 28.3686 53.4192C27.9603 53.3608 27.6587 53.1375 27.4652 52.7675C27.2126 52.2717 27.145 51.7574 27.2902 51.2217C27.3969 50.8233 27.6402 50.5217 28.0677 50.4534C28.6119 50.3559 29.1348 50.5509 29.4094 51.0951C29.5517 51.3583 29.6136 51.6784 29.6136 52.1351C29.6036 52.3201 29.5652 52.5726 29.4677 52.8159L29.467 52.8166ZM17.2183 52.155C17.1308 51.63 16.9366 51.1534 16.5766 50.755C16.0417 50.1617 15.3616 49.9014 14.5933 49.8992C13.9224 49.8893 13.2914 50.0842 12.7266 50.4342C12.1713 50.7665 11.7643 51.2987 11.5891 51.9217C11.424 52.4858 11.4326 53.0599 11.5606 53.6326C11.9007 55.1692 13.0873 55.8294 14.5058 55.7326C14.9241 55.7042 15.3224 55.5676 15.7009 55.3826C16.265 55.1194 16.6734 54.7018 16.9551 54.1476C17.1785 53.6909 17.2752 53.2043 17.266 52.6502L17.2176 52.1543L17.2183 52.155ZM15.8382 54.3134C15.7687 54.5321 15.6369 54.7259 15.459 54.8709C15.2811 55.016 15.0648 55.106 14.8366 55.1301C14.4097 55.1884 14.0099 55.0817 13.6507 54.8284C13.3913 54.6377 13.1813 54.3877 13.0382 54.0993C12.6398 53.2826 12.5715 52.4275 12.775 51.5525C12.8405 51.2817 12.9822 51.0353 13.1833 50.8425C13.5433 50.5117 13.9608 50.4342 14.4282 50.5316C14.8764 50.6291 15.2157 50.8717 15.4953 51.2416C15.7749 51.6115 15.9036 52.0384 15.9812 52.4865C16.0203 52.7099 16.0203 52.9433 16.0296 53.0891C16.0296 53.5558 15.9904 53.9428 15.8446 54.3141L15.8382 54.3134ZM38.4604 52.2333C38.3893 51.6692 38.1787 51.1541 37.7796 50.7266C37.2546 50.1532 36.5738 49.9099 35.8162 49.8999C35.1646 49.89 34.562 50.0749 34.0078 50.3958C33.3854 50.7657 32.9578 51.29 32.7928 52C32.5957 52.7745 32.6783 53.5938 33.0261 54.3134C33.3462 54.9942 33.8912 55.4317 34.6111 55.6259C35.4079 55.8393 36.1669 55.7426 36.9053 55.3826C37.547 55.0717 38.0037 54.5859 38.2662 53.9243C38.4227 53.5351 38.4796 53.1175 38.4896 52.631C38.4996 52.5435 38.4796 52.3877 38.4611 52.2326L38.4604 52.2333ZM37.1187 54.1875C36.9622 54.7125 36.6329 55.0525 36.0787 55.1308C35.6704 55.1891 35.2819 55.0917 34.9312 54.8583C34.6296 54.6542 34.4162 54.3817 34.2604 54.0616C34.0854 53.7215 33.9879 53.3616 33.9495 52.9923C33.8912 52.5356 33.8912 52.0889 33.9979 51.6315C34.0182 51.5413 34.0475 51.4533 34.0854 51.3689C34.3578 50.6881 34.9604 50.3773 35.6704 50.5331C36.147 50.6398 36.5062 50.903 36.7787 51.3014C37.0419 51.6905 37.1678 52.118 37.2269 52.5819C37.2553 52.7668 37.266 52.961 37.2553 53.1261C37.2553 53.5053 37.2269 53.8553 37.1131 54.1953L37.1187 54.1875Z"/><path fill="#599636" d="M28.3693 0.114136L29.4969 2.23498C29.7424 2.61754 30.0282 2.9727 30.3494 3.29436C31.2939 4.23891 32.193 5.22898 32.9979 6.2894C34.9097 8.80027 36.1998 11.5884 37.1216 14.6072C37.6741 16.4508 37.9741 18.3399 37.9968 20.2518C38.0899 25.9656 36.1305 30.8725 32.1681 34.9507C31.5261 35.5972 30.8328 36.1905 30.0949 36.725C29.7018 36.725 29.5187 36.4146 29.3573 36.1487C29.0469 35.6315 28.8731 35.0656 28.781 34.4904C28.6424 33.7993 28.5503 33.1082 28.5969 32.3933V32.0705C28.5741 32.0012 28.2286 0.276561 28.3662 0.115171L28.3693 0.114136Z"/><path fill="#6CAC48" d="M28.3693 0.0457906C28.3227 -0.0473194 28.2762 0.0230307 28.2306 0.0685512C28.2534 0.528928 28.092 0.943785 27.8375 1.33588C27.5613 1.72901 27.1919 2.02697 26.8236 2.34975C24.7732 4.12401 23.1613 6.26657 21.8702 8.66261C20.1652 11.8883 19.2672 15.3438 19.0148 18.9844C18.901 20.2983 19.4286 24.9289 19.8445 26.2645C20.9722 29.8131 22.9999 32.7843 25.638 35.3645C26.2836 35.9852 26.9747 36.5625 27.6885 37.115C27.8954 37.115 27.9192 36.9308 27.9648 36.7922C28.0555 36.4979 28.1247 36.1975 28.1717 35.8931C28.3786 34.7417 28.4944 33.5892 28.632 32.4377L28.3786 0.0457906H28.3693Z"/><path fill="#C2BFBF" d="M29.5 38.1299C29.5466 37.6002 29.8104 37.1626 30.0763 36.725C29.8001 36.6112 29.5921 36.3795 29.4307 36.125C29.2921 35.8943 29.1773 35.6077 29.0852 35.3646C28.7624 34.3972 28.6921 33.3834 28.601 32.3923V31.7922C28.4872 31.8853 28.4624 32.6675 28.4624 32.7833C28.3931 33.8427 28.2555 34.8804 28.0486 35.8932C27.9792 36.307 27.9348 36.7229 27.6803 37.0912C27.6803 37.1378 27.6803 37.1843 27.703 37.2526C28.1168 38.4734 28.2327 39.718 28.3031 40.9853V41.4457C28.3031 41.9981 28.2803 41.8833 28.7407 42.0664C28.9248 42.1357 29.1338 42.1595 29.3169 42.2971C29.4556 42.2971 29.4783 42.1833 29.4783 42.0902L29.409 41.3298V39.209C29.3862 38.8407 29.4556 38.4713 29.5021 38.1258L29.5 38.1299Z"/></svg>