<svg xmlns="http://www.w3.org/2000/svg" width="57" height="42" fill="none" viewBox="0 0 57 42"><path fill="#83CD29" d="M27.9987 23C27.7555 23 27.5191 23.0529 27.3098 23.1776L20.6889 27.2046C20.2604 27.4645 20 27.9557 20 28.4779V36.5175C20 37.0396 20.2604 37.53 20.6889 37.7907L22.418 38.8401C23.2581 39.2764 23.568 39.2694 23.9503 39.2694C25.1941 39.2694 25.9041 38.4745 25.9041 37.0929V29.1613C25.9041 29.0492 25.8119 28.9689 25.7074 28.9689H24.878C24.7717 28.9689 24.6812 29.0512 24.6812 29.1613V37.097C24.6812 37.7094 24.0756 38.3255 23.0928 37.8078L21.2953 36.6974C21.2319 36.661 21.1828 36.5945 21.1828 36.5198V28.4802C21.1828 28.4041 21.2313 28.3263 21.2953 28.2878L27.9024 24.2752C27.9643 24.2377 28.038 24.2377 28.0992 24.2752L34.7062 28.2878C34.7691 28.3275 34.8188 28.4016 34.8188 28.4802V36.5198C34.8188 36.5966 34.7822 36.6752 34.7203 36.7122L28.0994 40.7248C28.0407 40.7604 27.9626 40.7604 27.9026 40.7248L26.2017 39.6589C26.1509 39.6276 26.0819 39.6301 26.033 39.6589C25.5636 39.9392 25.4752 39.9717 25.0351 40.1326C24.9266 40.1723 24.7615 40.2342 25.0913 40.4289L27.3124 41.8076C27.5238 41.9364 27.7594 42 28.0013 42C28.2465 42 28.4786 41.9383 28.6902 41.8076L35.3111 37.795C35.7396 37.5324 36 37.0439 36 36.5219V28.4822C36 27.96 35.7396 27.4698 35.3111 27.2089L28.6902 23.1819C28.4827 23.0572 28.2447 23.0043 28.0013 23.0043L27.9987 23ZM29.77 28.7448C27.8846 28.7448 26.7618 29.5899 26.7618 30.9952C26.7618 32.5179 27.8762 32.9385 29.6858 33.127C31.8506 33.3503 32.0194 33.6851 32.0194 34.1339C32.0194 34.9123 31.4301 35.2442 30.0373 35.2442C28.2875 35.2442 27.9028 34.7841 27.774 33.8655C27.7588 33.7672 27.6869 33.6879 27.5914 33.6879H26.7317C26.6799 33.6891 26.6305 33.7114 26.5939 33.75C26.5572 33.7886 26.5361 33.8406 26.535 33.8952C26.535 35.0687 27.141 36.4564 30.0353 36.4564C32.1304 36.4564 33.3388 35.5922 33.3388 34.0727C33.3388 32.5706 32.3627 32.1646 30.3306 31.8812C28.2791 31.5932 28.0814 31.4553 28.0814 30.9485C28.0814 30.5303 28.2474 29.971 29.7683 29.971C31.1267 29.971 31.6288 30.2797 31.8348 31.2444C31.8527 31.3349 31.9285 31.409 32.0174 31.409H32.8771C32.9299 31.409 32.981 31.3748 33.0178 31.3349C33.0537 31.2923 33.0791 31.2444 33.074 31.1867C32.9412 29.5253 31.8893 28.7438 29.7706 28.7438L29.77 28.7448Z"/><path fill="#404137" d="M38.1678 0.000184226C38.1145 0.000280495 38.0621 0.0142618 38.0158 0.0407519C37.9698 0.0676943 37.9316 0.106167 37.9049 0.152381C37.8783 0.198594 37.8641 0.250954 37.8639 0.304301V8.05751C37.8639 8.13358 37.8284 8.20175 37.7624 8.23993C37.7301 8.25876 37.6934 8.26868 37.656 8.26868C37.6186 8.26868 37.5819 8.25876 37.5496 8.23993L36.2827 7.51027C36.1903 7.45681 36.0854 7.42865 35.9787 7.42865C35.8719 7.42865 35.767 7.45681 35.6746 7.51027L30.6175 10.429C30.4284 10.5381 30.3132 10.7479 30.3132 10.9661V16.8038C30.3131 16.9106 30.3411 17.0156 30.3945 17.1081C30.4479 17.2006 30.5247 17.2774 30.6173 17.3307L35.6746 20.2496C35.767 20.3033 35.8719 20.3315 35.9787 20.3315C36.0855 20.3315 36.1903 20.3033 36.2827 20.2496L41.34 17.3307C41.4326 17.2774 41.5094 17.2006 41.5628 17.1081C41.6162 17.0156 41.6443 16.9106 41.6441 16.8038V2.25014C41.6441 2.02871 41.5233 1.82094 41.33 1.71304L38.32 0.0304691C38.2726 0.0041283 38.2202 -0.000520072 38.1678 4.33674e-05V0.000184226ZM5.63482 7.28715C5.53833 7.2911 5.44776 7.30786 5.36113 7.35814L0.303978 10.2769C0.211336 10.3301 0.134421 10.4069 0.0810348 10.4995C0.0276489 10.592 -0.000307365 10.697 2.54892e-06 10.8039L0.0102853 18.6383C0.0102853 18.7474 0.0666293 18.8485 0.162414 18.9018C0.256368 18.9581 0.372859 18.9581 0.46639 18.9018L3.46628 17.1788C3.65645 17.0661 3.7804 16.8694 3.7804 16.6519V12.9931C3.7804 12.7748 3.8952 12.5748 4.08466 12.4663L5.3617 11.7265C5.45397 11.6728 5.55892 11.6448 5.66567 11.6454C5.77247 11.6447 5.87749 11.6727 5.96979 11.7265L7.24626 12.4659C7.43544 12.5743 7.55024 12.7746 7.55024 12.9927V16.6514C7.55024 16.8692 7.67701 17.0669 7.86435 17.1782L10.8642 18.9012C10.9586 18.9575 11.0748 18.9575 11.1682 18.9012C11.2612 18.8477 11.3204 18.7467 11.3204 18.6378L11.3305 10.8036C11.3311 10.6967 11.3033 10.5915 11.2498 10.4989C11.1964 10.4064 11.1194 10.3296 11.0265 10.2766L5.96937 7.358C5.88386 7.30786 5.79287 7.29095 5.69567 7.28701H5.6351L5.63482 7.28715ZM51.0796 7.35814C50.9729 7.35785 50.8679 7.38585 50.7755 7.43928L45.7182 10.3582C45.5295 10.4673 45.414 10.6669 45.414 10.885V16.7227C45.414 16.9421 45.5376 17.141 45.7281 17.2495L50.7448 20.1089C50.93 20.2146 51.1561 20.2226 51.3427 20.1188L54.3832 18.4262C54.4797 18.3727 54.5449 18.2727 54.5452 18.1628C54.5455 18.0529 54.4884 17.9541 54.3931 17.8994L49.3052 14.9805C49.21 14.9261 49.1432 14.8161 49.1432 14.7068V12.8814C49.1432 12.7724 49.2108 12.6724 49.3052 12.618L50.8862 11.7058C50.9803 11.6514 51.0958 11.6514 51.1905 11.7058L52.7722 12.618C52.8185 12.6446 52.857 12.683 52.8836 12.7292C52.9103 12.7755 52.9243 12.828 52.9242 12.8814V14.3206C52.924 14.374 52.938 14.4265 52.9647 14.4727C52.9914 14.519 53.0299 14.5574 53.0762 14.584C53.171 14.6386 53.2858 14.6389 53.3804 14.584L56.4106 12.8208C56.5987 12.7115 56.7149 12.5114 56.7149 12.294V10.8854C56.7149 10.7786 56.6868 10.6737 56.6334 10.5812C56.58 10.4887 56.5032 10.4119 56.4107 10.3585L51.3839 7.43956C51.2915 7.38606 51.1865 7.35806 51.0798 7.35843L51.0796 7.35814ZM35.9583 11.7164C35.9866 11.7162 36.0145 11.7231 36.0394 11.7365L37.7724 12.7398C37.8195 12.767 37.8536 12.8173 37.8536 12.8715V14.8782C37.8536 14.9327 37.8198 14.9829 37.7724 15.0099L36.0394 16.0133C35.9923 16.04 35.9346 16.04 35.8873 16.0133L34.1543 15.0099C34.1071 14.9828 34.0732 14.9325 34.0732 14.8782V12.8713C34.0732 12.8169 34.1073 12.767 34.1543 12.7396L35.8873 11.7364C35.911 11.7227 35.9318 11.7162 35.9583 11.7162V11.7161V11.7164Z"/><path fill="#83CD29" d="M20.8271 7.3276C20.7203 7.32741 20.6154 7.3554 20.5229 7.40874L15.4656 10.3175C15.2765 10.4265 15.1616 10.6365 15.1616 10.8546V16.6923C15.1613 16.7991 15.1893 16.9041 15.2427 16.9966C15.296 17.0891 15.3729 17.1659 15.4656 17.2191L20.5229 20.138C20.6152 20.1916 20.7201 20.2198 20.8269 20.2198C20.9337 20.2198 21.0386 20.1916 21.131 20.138L26.1883 17.2191C26.2808 17.1658 26.3577 17.089 26.4111 16.9964C26.4645 16.9039 26.4925 16.7989 26.4924 16.6921V10.8545C26.4924 10.6361 26.3774 10.4262 26.1881 10.3174L21.1308 7.40859C21.0384 7.35501 20.9334 7.32701 20.8266 7.32746L20.8271 7.3276ZM51.0698 12.537C51.0496 12.537 51.0272 12.537 51.0089 12.5469L50.036 13.1145C50.0179 13.1246 50.0027 13.1393 49.992 13.157C49.9813 13.1748 49.9755 13.1951 49.9751 13.2158V14.3307C49.9751 14.3727 49.9995 14.411 50.036 14.4322L51.0089 14.9895C51.0256 14.9999 51.0449 15.0054 51.0645 15.0054C51.0842 15.0054 51.1035 14.9999 51.1202 14.9895L52.0931 14.4322C52.1292 14.4114 52.1539 14.3727 52.1539 14.3307V13.2158C52.1539 13.1739 52.1293 13.1355 52.0931 13.1144L51.1202 12.5467C51.1021 12.536 51.0898 12.5369 51.0695 12.5369L51.0698 12.537Z"/></svg>