<svg xmlns="http://www.w3.org/2000/svg" width="28" height="14" fill="none" viewBox="0 0 28 14"><path fill="#000" d="M8.00621 2.0985H2.71698V5.85542H7.37851V7.72004H2.71698V13H0.187744V0.233887H8.2739L8.00621 2.0985Z"/><path fill="#000" d="M20.0958 0.233887L15.8773 8.16312V13H13.3481V8.18158L9.12966 0.233887H11.8989L14.6589 6.04927L17.4466 0.233887H20.0958Z"/><path fill="#000" d="M23.7762 11.3662C23.7762 11.0277 23.8593 10.7139 24.0254 10.4247C24.1977 10.1293 24.4285 9.89542 24.7177 9.72312C25.0131 9.55081 25.3331 9.46465 25.6777 9.46465C26.0285 9.46465 26.3485 9.55081 26.6377 9.72312C26.9331 9.89542 27.1639 10.1293 27.33 10.4247C27.5023 10.7139 27.5885 11.0277 27.5885 11.3662C27.5885 11.7108 27.5023 12.0308 27.33 12.3262C27.1639 12.6154 26.9331 12.8462 26.6377 13.0185C26.3485 13.1908 26.0285 13.277 25.6777 13.277C25.3331 13.277 25.0131 13.1908 24.7177 13.0185C24.4285 12.8462 24.1977 12.6154 24.0254 12.3262C23.8593 12.0308 23.7762 11.7108 23.7762 11.3662Z"/></svg>