<svg width="24" height="24" viewBox="0 0 24 24" fill="none" xmlns="http://www.w3.org/2000/svg">
<path d="M10.9688 1.21875H13.0312V5.53125H10.9688V1.21875ZM10.9688 18.4688H13.0312V22.7812H10.9688V18.4688ZM15.8449 6.69642L18.8943 3.64702L20.3527 5.10544L17.3033 8.15484L15.8449 6.69642ZM3.64758 18.8941L6.69698 15.8447L8.15541 17.3031L5.106 20.3525L3.64758 18.8941ZM18.4688 10.9688H22.7812V13.0312H18.4688V10.9688ZM1.21875 10.9688H5.53125V13.0312H1.21875V10.9688ZM15.8451 17.3034L17.3035 15.845L20.3529 18.8944L18.8945 20.3528L15.8451 17.3034ZM3.64697 5.10562L5.10539 3.6472L8.1548 6.69661L6.69638 8.15498L3.64697 5.10562ZM12 16.7812C11.0544 16.7812 10.13 16.5008 9.34368 15.9755C8.55741 15.4501 7.94458 14.7034 7.5827 13.8297C7.22082 12.956 7.12613 11.9947 7.31062 11.0672C7.49511 10.1398 7.95048 9.28782 8.61915 8.61915C9.28782 7.95048 10.1398 7.49511 11.0672 7.31062C11.9947 7.12613 12.956 7.22082 13.8297 7.5827C14.7034 7.94458 15.4501 8.55741 15.9755 9.34368C16.5008 10.13 16.7812 11.0544 16.7812 12C16.7798 13.2676 16.2755 14.4829 15.3792 15.3792C14.4829 16.2755 13.2676 16.7798 12 16.7812V16.7812Z" fill="black"/>
</svg>
