<svg xmlns="http://www.w3.org/2000/svg" width="53" height="53" fill="none" viewBox="0 0 53 53"><path stroke="#fff" stroke-linecap="round" stroke-linejoin="round" stroke-width="5" d="M34.9067 48.0639C31.1169 49.6662 28.6329 50 24.3868 50C11.489 50 1.96164 39.4784 3.09086 26.5C4.22007 13.5216 15.6051 3 28.5029 3C43.0314 3 51.0182 12.5776 49.8956 25.3958C49.0583 34.9654 42.981 37.7226 39.799 37.1551C36.8055 36.621 34.3347 33.8945 34.7912 28.6764L35.9164 15.8249M34.9372 26.5C34.3401 33.3097 29.6135 37.1818 24.2488 37.1818C18.884 37.1818 15.3132 32.399 15.8294 26.5C16.3456 20.601 20.755 15.8182 26.1197 15.8182C31.4845 15.8182 35.452 20.625 34.9372 26.5Z"/></svg>