<svg xmlns="http://www.w3.org/2000/svg" width="47" height="48" fill="none" viewBox="0 0 47 48"><path fill="#000" d="M23.5 0C10.5225 0 0 11.025 0 24.6107C0 35.4857 6.73527 44.7 16.0723 47.9571C16.2033 47.9862 16.337 48.0005 16.471 48C17.3417 48 17.6775 47.3464 17.6775 46.7786C17.6775 46.1893 17.6565 44.6464 17.646 42.5893C16.8686 42.7754 16.0734 42.8724 15.275 42.8786C10.7533 42.8786 9.72522 39.2893 9.72522 39.2893C8.65513 36.45 7.11295 35.6893 7.11295 35.6893C5.06719 34.2214 7.10246 34.1786 7.25982 34.1786H7.27031C9.6308 34.3928 10.8688 36.7286 10.8688 36.7286C12.0438 38.8286 13.6174 39.4178 15.0232 39.4178C15.9528 39.3989 16.8679 39.1798 17.7089 38.775C17.9188 37.1893 18.5272 36.1071 19.1987 35.4857C13.9846 34.8643 8.49777 32.7536 8.49777 23.325C8.49777 20.6357 9.41049 18.4393 10.9107 16.725C10.6694 16.1036 9.86161 13.5964 11.1415 10.2107C11.3132 10.1688 11.4897 10.1507 11.6661 10.1571C12.5158 10.1571 14.4357 10.4893 17.604 12.7393C21.4538 11.6393 25.5253 11.6393 29.375 12.7393C32.5433 10.4893 34.4632 10.1571 35.3129 10.1571C35.4894 10.1507 35.6658 10.1688 35.8375 10.2107C37.1174 13.5964 36.3096 16.1036 36.0683 16.725C37.5685 18.45 38.4813 20.6464 38.4813 23.325C38.4813 32.775 32.9839 34.8536 27.7489 35.4643C28.5882 36.225 29.3435 37.725 29.3435 40.0178C29.3435 43.3071 29.3121 45.9643 29.3121 46.7678C29.3121 47.3464 29.6373 48 30.508 48C30.649 48.0006 30.7896 47.9863 30.9277 47.9571C40.2752 44.7 47 35.475 47 24.6107C47 11.025 36.4775 0 23.5 0Z"/></svg>