<svg xmlns="http://www.w3.org/2000/svg" width="50" height="47" fill="none" viewBox="0 0 50 47"><path fill="#000" d="M25.0056 11.4498C17.9113 11.4498 12.1891 16.8299 12.1891 23.5C12.1891 30.1701 17.9113 35.5502 25.0056 35.5502C32.0998 35.5502 37.8221 30.1701 37.8221 23.5C37.8221 16.8299 32.0998 11.4498 25.0056 11.4498ZM25.0056 31.3342C20.4211 31.3342 16.6732 27.8209 16.6732 23.5C16.6732 19.1791 20.4099 15.6658 25.0056 15.6658C29.6012 15.6658 33.338 19.1791 33.338 23.5C33.338 27.8209 29.5901 31.3342 25.0056 31.3342ZM41.3358 10.9569C41.3358 12.5195 39.9972 13.7675 38.3464 13.7675C36.6843 13.7675 35.3569 12.509 35.3569 10.9569C35.3569 9.40472 36.6955 8.14621 38.3464 8.14621C39.9972 8.14621 41.3358 9.40472 41.3358 10.9569ZM49.8243 13.8095C49.6347 10.0445 48.72 6.70942 45.7864 3.96168C42.8639 1.21393 39.3168 0.353955 35.3123 0.165179C31.1852 -0.0550597 18.8148 -0.0550597 14.6877 0.165179C10.6944 0.343468 7.14724 1.20345 4.21361 3.95119C1.27998 6.69893 0.376464 10.034 0.175683 13.799C-0.0585611 17.6794 -0.0585611 29.3101 0.175683 33.1905C0.36531 36.9555 1.27998 40.2906 4.21361 43.0383C7.14724 45.7861 10.6832 46.646 14.6877 46.8348C18.8148 47.0551 31.1852 47.0551 35.3123 46.8348C39.3168 46.6565 42.8639 45.7966 45.7864 43.0383C48.7089 40.2906 49.6235 36.9555 49.8243 33.1905C50.0586 29.3101 50.0586 17.6899 49.8243 13.8095ZM44.4925 37.3541C43.6224 39.4096 41.9381 40.9933 39.7407 41.8218C36.4501 43.0488 28.6419 42.7656 25.0056 42.7656C21.3692 42.7656 13.5499 43.0383 10.2705 41.8218C8.08422 41.0037 6.39989 39.4201 5.51868 37.3541C4.21361 34.2602 4.51478 26.9189 4.51478 23.5C4.51478 20.0811 4.22476 12.7293 5.51868 9.64593C6.38873 7.59037 8.07306 6.00675 10.2705 5.17823C13.5611 3.95119 21.3692 4.23435 25.0056 4.23435C28.6419 4.23435 36.4612 3.96168 39.7407 5.17823C41.9269 5.99626 43.6113 7.57988 44.4925 9.64593C45.7975 12.7398 45.4964 20.0811 45.4964 23.5C45.4964 26.9189 45.7975 34.2707 44.4925 37.3541Z"/></svg>