<svg xmlns="http://www.w3.org/2000/svg" width="48" height="45" fill="none" viewBox="0 0 48 45"><path fill="#000" d="M10.7443 45H0.792857V14.9558H10.7443V45ZM5.76321 10.8575C2.58107 10.8575 0 8.38646 0 5.40313C2.27764e-08 3.97013 0.607194 2.59583 1.68801 1.58254C2.76882 0.569257 4.23471 0 5.76321 0C7.29171 0 8.75761 0.569257 9.83842 1.58254C10.9192 2.59583 11.5264 3.97013 11.5264 5.40313C11.5264 8.38646 8.94429 10.8575 5.76321 10.8575ZM47.9893 45H38.0593V30.3747C38.0593 26.8891 37.9843 22.4191 32.8854 22.4191C27.7114 22.4191 26.9186 26.2061 26.9186 30.1236V45H16.9779V14.9558H26.5221V19.0541H26.6614C27.99 16.6936 31.2354 14.2024 36.0771 14.2024C46.1486 14.2024 48 20.4202 48 28.4963V45H47.9893Z"/></svg>