<svg xmlns="http://www.w3.org/2000/svg" width="41" height="36" fill="none" viewBox="0 0 41 36"><path fill="#000" d="M40.1433 5.63278C39.6717 3.41559 38.2824 1.66941 36.5184 1.07681C33.3211 0 20.5 0 20.5 0C20.5 0 7.67901 0 4.48157 1.07681C2.71757 1.6695 1.32827 3.41559 0.856735 5.63278C0 9.65156 0 18.0364 0 18.0364C0 18.0364 0 26.4212 0.856735 30.44C1.32827 32.6572 2.71757 34.3306 4.48157 34.9232C7.67901 36 20.5 36 20.5 36C20.5 36 33.321 36 36.5184 34.9232C38.2824 34.3306 39.6717 32.6572 40.1433 30.44C41 26.4212 41 18.0364 41 18.0364C41 18.0364 41 9.65156 40.1433 5.63278ZM16.3068 25.6492V10.4236L27.0227 18.0366L16.3068 25.6492Z"/></svg>