<svg xmlns="http://www.w3.org/2000/svg" width="44" height="52" fill="none" viewBox="0 0 44 52"><path fill="#EE4323" d="M2.25225 49.2647C1.35781 49.2647 1.09777 48.7451 1.09777 47.9667C1.09777 47.7072 1.13042 47.4145 1.17064 47.1062C1.36658 45.76 1.84491 44.9897 2.99939 44.9897C3.78022 44.9897 4.16092 45.3382 4.16092 45.9709V46.2794H4.93556C4.94416 46.2794 4.94416 45.9954 4.94416 45.9308C4.94416 45.0062 4.38298 44.1293 3.00059 44.1293C1.12217 44.1293 0.349766 45.1473 0.0651406 47.1431C0.0244063 47.4109 0 47.6609 0 47.9277C0 49.104 0.463891 50.174 2.12248 50.174C3.38267 50.174 4.13119 49.561 4.56998 48.8065L3.82989 48.3093C3.35036 49.0639 2.82958 49.2647 2.25225 49.2647ZM7.33459 45.5493C5.83 45.5493 5.17997 46.3195 4.96048 47.8525C4.93472 48.0299 4.92093 48.2089 4.91923 48.3881C4.91923 49.3775 5.38278 50.1649 6.6672 50.1649C8.1718 50.1649 8.83059 49.3616 9.05008 47.8525C9.07448 47.658 9.09081 47.4795 9.09081 47.3012C9.09116 46.2955 8.61162 45.5493 7.33459 45.5493ZM7.96073 47.853C7.79797 48.9646 7.44872 49.3053 6.78958 49.3053C6.26141 49.3053 6.00136 49.0862 6.00136 48.4291C6.00136 48.2667 6.01786 48.0723 6.05017 47.853C6.21294 46.7499 6.53812 46.4092 7.20483 46.4092C7.74159 46.4092 8.00955 46.6282 8.00955 47.2933C8.00955 47.4555 7.99305 47.6422 7.96073 47.853ZM12.8729 44.2099L12.6211 45.6991C12.605 45.8286 12.6132 45.7855 12.6624 45.9073C12.4266 45.729 12.0034 45.611 11.7188 45.611C10.3689 45.611 9.61297 46.2206 9.36925 47.9241C9.34079 48.104 9.32717 48.2858 9.32852 48.4679C9.32852 49.7095 10.0602 50.1723 11.0438 50.1723C11.4591 50.1723 11.8654 50.1809 12.1822 49.9135L12.2631 50.4182H13.0439L13.9545 44.2099H12.8729ZM12.1005 49.0697C11.7349 49.2882 11.3774 49.3376 11.158 49.3376C10.5643 49.3376 10.4017 49.0291 10.4017 48.5346C10.4017 48.3478 10.4261 48.1294 10.4589 47.8934C10.6456 46.6038 11.0605 46.3763 11.5973 46.3763C11.9465 46.3763 12.2146 46.4334 12.4673 46.5716L12.1005 49.0697ZM16.3292 45.5493C14.8407 45.5493 14.142 46.2545 13.9059 47.8525C13.8811 48.0474 13.8648 48.2342 13.8648 48.4125C13.8648 49.5077 14.4262 50.1649 15.6616 50.1649C16.6212 50.1649 17.3374 49.7671 17.7193 49.037L16.8979 48.7043C16.6624 49.061 16.3453 49.3045 15.7841 49.3045C15.1826 49.3045 14.9385 49.1429 14.9385 48.6074C14.9385 48.5018 14.9468 48.3484 14.9631 48.3484H17.898C17.9393 47.9344 17.9874 47.6419 17.9874 47.3993C17.9874 46.5885 17.6787 45.5491 16.3292 45.5491V45.5493ZM16.89 47.521H15.1011C15.2804 47.1071 15.5806 46.4665 16.1989 46.4665C16.6784 46.4665 16.9146 46.7461 16.9146 47.2247C16.914 47.3058 16.9067 47.521 16.89 47.521ZM21.1166 45.4515L21.214 44.6238H18.9207L18.8236 45.4515H19.4251L18.7751 49.5903H18.1727L18.0758 50.4182H20.3686L20.4665 49.5903H19.8645L20.5147 45.4515H21.1166ZM25.7761 46.6931L26.0691 45.8654H25.2804L24.7117 45.9826C24.3944 45.7802 23.9633 45.6283 23.5572 45.6283C22.3939 45.6283 21.4024 46.1887 21.4024 47.4625C21.4024 47.8199 21.5323 48.1083 21.6865 48.3033C21.4431 48.4327 21.2315 48.6496 21.2315 48.9422C21.2315 49.0718 21.28 49.2045 21.378 49.3259C20.8897 49.6184 20.5898 50.1032 20.5898 50.6706C20.5898 51.7663 21.736 52 22.6141 52C23.7198 52 25.0374 51.7479 25.0374 50.3444C25.0374 49.866 24.7366 49.4922 23.8666 49.33L22.2973 49.0375C22.1186 49.0047 22.0779 48.948 22.0779 48.8669C22.0779 48.7451 22.1518 48.6807 22.2731 48.6807L22.379 48.6968C22.5904 48.7453 22.8345 48.77 23.0863 48.77C24.2168 48.77 25.2249 48.283 25.2249 47.0176C25.2249 46.8389 25.1926 46.718 25.1113 46.523C25.2493 46.5882 25.4286 46.6937 25.5011 46.6937H25.7761V46.6931ZM23.5405 50.0511C23.8492 50.1082 23.9547 50.2215 23.9547 50.4244C23.9547 51.0816 23.2473 51.1627 22.7353 51.1627C21.9546 51.1627 21.6621 50.9765 21.6621 50.5622C21.6621 50.197 21.7675 50.0271 22.0119 49.7671L23.5405 50.0511ZM23.2066 47.9262C22.7349 47.9262 22.4747 47.7561 22.4747 47.35C22.4747 46.7499 22.8245 46.401 23.4343 46.401C23.9223 46.401 24.1582 46.6038 24.1582 47.0008C24.1582 47.6013 23.8164 47.9262 23.2066 47.9262ZM28.6648 45.5493C28.2093 45.5493 27.8032 45.7722 27.2987 46.1693L27.2257 45.8654H26.3309L25.7049 50.418H26.7864L27.2582 46.9656C27.5755 46.771 27.9654 46.4884 28.2989 46.4884C28.7052 46.4884 28.852 46.6841 28.852 47.057C28.852 47.1463 28.8434 47.4109 28.827 47.5081L28.4292 50.418H29.5108L29.9087 47.4845C29.9252 47.3473 29.9413 47.1211 29.9413 46.9917C29.9418 46.2201 29.5754 45.5493 28.6648 45.5493ZM31.9957 49.2776L32.004 49.1661L32.4753 45.8654H30.6781L30.5649 46.6931H31.3531C31.288 46.6931 31.2474 46.7657 31.2395 46.831L30.9141 49.0293C30.898 49.1351 30.8901 49.3552 30.8901 49.4439C30.8901 50.0116 31.1987 50.4182 31.8326 50.4182H32.3857L32.5078 49.5903H32.1583C32.036 49.5903 31.9957 49.3748 31.9957 49.2776ZM32.6947 44.2099H31.6377C31.5726 44.2099 31.5726 43.971 31.5647 44.0521L31.4179 45.2185C31.4095 45.2919 31.4095 45.4517 31.4746 45.4517H32.5322C32.5973 45.4517 32.5973 45.1681 32.6052 45.0943L32.752 44.1941C32.7602 44.113 32.7602 44.2099 32.6947 44.2099ZM34.9001 49.3052C34.6321 49.3052 34.5018 49.1915 34.5018 48.9485L34.5101 48.9319L34.8516 46.6931H36.0874L36.4612 45.8654H34.9652L35.217 44.0439L34.0792 44.4069L33.8755 45.8654H33.2171L33.1035 46.6931H33.8676C33.7946 47.1071 33.7212 46.8385 33.7133 46.92L33.4204 48.883C33.4043 48.9725 33.4043 49.0373 33.4043 49.1181C33.4043 49.8888 33.9733 50.1773 34.657 50.1773C35.2909 50.1773 35.8033 49.9926 36.202 49.6594L35.6976 49.0404C35.4449 49.1942 35.2744 49.3052 34.9001 49.3052ZM38.8682 45.5493C37.3802 45.5493 36.681 46.2545 36.4451 47.8525C36.4207 48.0474 36.4043 48.2342 36.4043 48.4125C36.4043 49.5077 36.9653 50.1649 38.2011 50.1649C39.1607 50.1649 39.8769 49.7671 40.2585 49.037L39.4374 48.7043C39.2019 49.061 38.8845 49.3045 38.3231 49.3045C37.7219 49.3045 37.4775 49.1429 37.4775 48.6074C37.4775 48.5018 37.4863 48.3484 37.5026 48.3484H40.4377C40.4783 47.9344 40.5271 47.6419 40.5271 47.3993C40.5271 46.5885 40.2182 45.5491 38.8682 45.5491V45.5493ZM39.4295 47.521H37.6406C37.8194 47.1071 38.1198 46.4665 38.7384 46.4665C39.2179 46.4665 39.4541 46.7461 39.4541 47.2247C39.4536 47.3058 39.4457 47.521 39.4295 47.521ZM43.5196 45.5491C43.1293 45.5491 42.7634 45.7723 42.3973 46.1204L42.3323 45.8654H41.4382L40.8119 50.418H41.9016L42.3811 46.8926C42.6659 46.7226 42.9911 46.5774 43.3001 46.5774C43.4955 46.5774 43.6822 46.5464 43.861 46.5705L44 45.63C43.8365 45.5976 43.674 45.5493 43.5196 45.5493V45.5491ZM15.9053 40.949C13.4441 39.8876 11.1409 37.19 11.1354 34.4299C11.1287 31.4205 13.0403 28.8656 15.4179 27.1866C15.132 28.2639 14.9762 29.2494 15.6843 30.213C16.3426 31.109 17.4955 31.5444 18.5842 31.3081C21.1279 30.7525 21.2446 27.9627 19.7366 26.3373C18.2456 24.7277 16.8032 22.9096 17.3707 20.5753C17.6548 19.4052 18.375 18.3092 19.2873 17.5257C18.586 19.3642 20.5788 21.1774 21.8917 22.0805C24.1692 23.6474 26.6681 24.8316 28.7622 26.6684C30.965 28.5988 32.5916 31.209 32.2632 34.2363C31.9072 37.5175 29.2937 39.7997 26.3622 40.9518C32.5569 39.5877 38.9577 34.7912 39.0888 27.9371C39.1975 22.2983 35.3201 17.9587 30.5171 15.4742L30.2662 15.3376C30.398 15.6567 30.4411 15.9281 30.4361 16.1711C30.4791 15.9919 30.5083 15.8078 30.5166 15.6178C30.5154 15.8435 30.4858 16.0681 30.4286 16.2865L30.4361 16.1711C30.3648 16.4705 30.2447 16.7561 30.0805 17.0166L30.151 16.941C29.1928 18.5266 26.5987 18.8709 25.3172 17.2291C23.2571 14.5881 25.3603 11.7406 25.6546 8.94394C26.0229 5.43889 23.8196 2.03622 21.0879 0C22.5925 2.4282 20.6102 5.64072 19.0243 7.4367C17.4866 9.17765 15.6164 10.6312 13.9188 12.213C12.0952 13.912 10.3421 15.7016 8.84314 17.6957C5.8453 21.6868 4.01002 26.7065 5.35872 31.6856C6.70656 36.6614 11.0268 39.8288 15.9055 40.9489L15.9053 40.949Z"/></svg>