<svg xmlns="http://www.w3.org/2000/svg" width="57" height="30" fill="none" viewBox="0 0 57 30"><path fill="#00678C" fill-rule="evenodd" d="M0.19682 26.9834H2.07144V19.557L4.99907 26.0319C5.33069 26.8102 5.8071 27.0985 6.72954 27.0985C7.65198 27.0985 8.09995 26.8099 8.44255 26.0319L11.3556 19.557V26.9834H13.2448V19.557C13.2448 18.8363 12.9562 18.4895 12.3505 18.302C10.9229 17.8696 9.97101 18.2445 9.53856 19.2102L6.6691 25.613L3.90016 19.2102C3.48193 18.2445 2.51553 17.8696 1.07369 18.302C0.482215 18.4895 0.193911 18.836 0.193911 19.557L0.193588 26.9834H0.19682ZM14.8053 20.9414H16.6944V25.0225C16.6802 25.253 16.7665 25.7724 17.7933 25.7863C18.3266 25.8008 21.86 25.7863 21.8884 25.7863V20.9123H23.7776V27.5891C23.7776 29.233 21.7413 29.593 20.7924 29.6079H14.8518V28.3539H20.8076C22.019 28.2239 21.8748 27.6185 21.8748 27.4165V26.9259H17.88C16.0196 26.9114 14.8224 26.0894 14.8085 25.1521V20.9407L14.8053 20.9414ZM55.3274 16.2112C54.1742 16.1821 53.2795 16.2978 52.5297 16.6152C52.3138 16.7025 51.9673 16.7025 51.9389 16.9759C52.0542 17.0906 52.0681 17.2784 52.1693 17.4374C52.3422 17.7261 52.6454 18.1149 52.9191 18.3166C53.2223 18.5477 53.5252 18.7781 53.8419 18.9801C54.4043 19.326 55.0388 19.528 55.5866 19.8741C55.904 20.0761 56.2211 20.3357 56.5385 20.5522C56.7001 20.6676 56.798 20.8554 57 20.9271V20.8835C56.8992 20.7542 56.8701 20.5668 56.7695 20.422C56.6251 20.2781 56.4809 20.1479 56.3364 20.004C55.9185 19.4417 55.3991 18.951 54.8368 18.5477C54.3752 18.2303 53.3661 17.7978 53.1787 17.2645L53.1502 17.2354C53.467 17.2063 53.8419 17.091 54.1451 17.0043C54.6357 16.875 55.0824 16.9035 55.5866 16.7739C55.8177 16.7157 56.0481 16.644 56.2792 16.5719V16.4426C56.0197 16.1831 55.8322 15.8369 55.5585 15.5919C54.8232 14.9574 54.0152 14.3372 53.1787 13.8181C52.7317 13.5298 52.1548 13.342 51.679 13.0974C51.5054 13.0108 51.2174 12.9674 51.1166 12.8233C50.8564 12.5065 50.7126 12.088 50.5251 11.7127C50.1072 10.9196 49.7032 10.0401 49.3428 9.20366C49.0833 8.64128 48.9243 8.07889 48.6075 7.55982C47.1221 5.10827 45.5066 3.62312 43.0263 2.16641C42.493 1.86356 41.8586 1.73331 41.184 1.57494L40.1026 1.51676C39.8715 1.41592 39.641 1.14184 39.439 1.01191C38.6171 0.492831 36.4972 -0.631941 35.8912 0.853532C35.5017 1.79084 36.4681 2.71361 36.7961 3.18969C37.0418 3.52131 37.3585 3.89623 37.5321 4.27115C37.6291 4.51615 37.6614 4.77601 37.7625 5.03555C37.993 5.67001 38.2095 6.37687 38.5124 6.96834C38.674 7.27119 38.8437 7.5889 39.0457 7.86266C39.1611 8.02104 39.3631 8.09343 39.4061 8.35297C39.2041 8.6416 39.1902 9.07373 39.0748 9.43476C38.5554 11.0644 38.7574 13.0832 39.4927 14.2797C39.7238 14.6401 40.2684 15.4335 41.0072 15.1304C41.6563 14.8708 41.5115 14.0489 41.6989 13.3278C41.7425 13.1549 41.7135 13.0395 41.7998 12.9238V12.9529L42.3912 14.1497C42.8382 14.8563 43.6172 15.5919 44.2659 16.0825C44.6117 16.3421 44.8858 16.7894 45.3182 16.9478V16.9041H45.2898C45.2032 16.7749 45.0732 16.7167 44.9578 16.6158C44.6983 16.3563 44.41 16.0389 44.208 15.7506C43.6026 14.9432 43.0693 14.0489 42.5932 13.1261C42.3621 12.6791 42.1601 12.1888 41.9733 11.7418C41.8861 11.5686 41.8861 11.3087 41.7422 11.2228C41.5257 11.5395 41.2089 11.8142 41.0496 12.2034C40.7755 12.8233 40.7471 13.5877 40.6462 14.3808C40.588 14.3954 40.6139 14.3808 40.588 14.4099C40.1271 14.2949 39.9681 13.8185 39.7952 13.4151C39.3628 12.3912 39.2904 10.7473 39.6653 9.56469C39.7661 9.26184 40.1992 8.30999 40.0263 8.02168C39.939 7.7476 39.6514 7.58923 39.4924 7.37268C39.3049 7.0986 39.1035 6.75276 38.9736 6.44991C38.6278 5.64189 38.4549 4.74821 38.0796 3.94051C37.906 3.56559 37.6035 3.17612 37.3582 2.83028C37.0841 2.44082 36.7819 2.16673 36.5654 1.70551C36.4933 1.54714 36.3925 1.28728 36.5078 1.11404C36.5363 0.998653 36.5945 0.955667 36.7092 0.926578C36.8967 0.768205 37.4306 0.969888 37.6181 1.05586C38.1514 1.27241 38.5984 1.4741 39.0454 1.77662C39.2474 1.92077 39.4639 2.19485 39.7235 2.26725H40.0266C40.4882 2.36809 41.0069 2.29634 41.4391 2.42563C42.2034 2.67127 42.8954 3.03132 43.516 3.42111C45.4048 4.61796 46.9627 6.31966 48.0151 8.3533C48.188 8.68491 48.2601 8.98776 48.4191 9.33392C48.7223 10.0408 49.0972 10.7615 49.3994 11.4542C49.7026 12.1319 49.9909 12.8246 50.4233 13.387C50.6399 13.6898 51.5048 13.8482 51.8939 14.0069C52.1826 14.1362 52.6292 14.2525 52.8894 14.4109C53.3794 14.7137 53.8697 15.0599 54.3309 15.3915C54.5614 15.5641 55.2828 15.9248 55.3258 16.2125L55.3274 16.2112ZM40.6213 3.67968C40.4221 3.67792 40.2235 3.70215 40.0305 3.75176V3.78084H40.0589C40.1743 4.01162 40.3763 4.17031 40.5205 4.37232L40.8524 5.06463L40.8809 5.03555C41.0829 4.89139 41.184 4.66062 41.184 4.31479C41.0974 4.21395 41.0832 4.11278 41.0111 4.01194C40.9245 3.86779 40.737 3.79539 40.6213 3.68033V3.67968Z" clip-rule="evenodd"/><path fill="#CE8B2C" fill-rule="evenodd" d="M25.2171 26.9834H30.6393C31.2738 26.9834 31.8798 26.8542 32.3698 26.6231C33.1917 26.2481 33.5812 25.7439 33.5812 25.0804V23.6961C33.5812 23.1628 33.1342 22.6576 32.2405 22.3118C31.779 22.1389 31.202 22.0377 30.6396 22.0377H28.361C27.5966 22.0377 27.2362 21.8066 27.1351 21.3024C27.1209 21.2449 27.1209 21.187 27.1209 21.1295V20.2785C27.1209 20.2348 27.1209 20.1776 27.1351 20.1201C27.2359 19.7306 27.4379 19.6294 28.1047 19.5577H33.6565V18.3027H28.3785C27.6141 18.3027 27.2104 18.3463 26.8497 18.4617C25.7391 18.8075 25.2488 19.3557 25.2488 20.3214V21.4181C25.2488 22.2681 26.2007 22.9899 27.8158 23.1628C27.9887 23.1773 28.1761 23.1773 28.3636 23.1773H30.3106C30.3827 23.1773 30.4544 23.1773 30.512 23.1919C31.1034 23.2494 31.363 23.3502 31.5359 23.5661C31.6513 23.6815 31.6804 23.7827 31.6804 23.9126V25.0083C31.6804 25.1376 31.5938 25.3115 31.4208 25.4553C31.2479 25.5991 30.9732 25.7003 30.6128 25.7148C30.5407 25.7148 30.4981 25.7294 30.4254 25.7294H25.2171V26.9834ZM45.3192 24.8063C45.3192 26.0894 46.2888 26.8102 48.2184 26.955C48.4058 26.9695 48.5788 26.9834 48.7662 26.9834H53.6693V25.7294H48.7232C47.6266 25.7294 47.2087 25.4553 47.2087 24.7921V18.3027H45.3156V24.8066L45.3192 24.8063ZM34.7777 24.8635V20.3935C34.7777 19.2542 35.5851 18.5616 37.1575 18.3457C37.3304 18.3311 37.5033 18.3166 37.6617 18.3166H41.2377C41.4252 18.3166 41.5842 18.3311 41.7716 18.3457C43.3434 18.5616 44.1362 19.2539 44.1362 20.3935V24.8635C44.1362 25.7863 43.805 26.2769 43.0257 26.6088L44.8712 28.2811H42.6941L41.1944 26.9259L39.6798 27.0125H37.6611C37.2911 27.0107 36.9229 26.9624 36.5651 26.8687C35.3692 26.5364 34.7777 25.9023 34.7777 24.8635ZM36.8107 24.7633C36.8107 24.8208 36.843 24.8781 36.8543 24.9508C36.9552 25.4695 37.4452 25.7582 38.195 25.7582H39.897L38.3398 24.3448H40.5169L41.8867 25.5852C42.1469 25.4408 42.3053 25.2388 42.3628 24.9792C42.3773 24.9217 42.3773 24.8499 42.3773 24.7918V20.5086C42.3773 20.451 42.3773 20.3938 42.3628 20.3357C42.2619 19.8457 41.772 19.5719 41.0363 19.5719H38.1953C37.3589 19.5719 36.811 19.9323 36.811 20.5086L36.8107 24.7633Z" clip-rule="evenodd"/></svg>