<svg xmlns="http://www.w3.org/2000/svg" width="52" height="50" fill="none" viewBox="0 0 52 50"><path fill="url(#paint0_linear)" d="M13.7248 6.62117C13.7248 3.21445 14.6592 1.36117 19.8181 0.478674C23.3205 -0.121497 27.8113 -0.196518 32.0002 0.478674C35.3088 1.01258 38.0935 3.42201 38.0935 6.62117V17.8606C38.0935 21.1571 35.3899 23.8573 32.0002 23.8573H19.8181C15.6836 23.8573 12.199 27.3038 12.199 31.2002V36.5927H8.01034C4.46724 36.5927 2.40435 34.095 1.53775 30.6C0.368826 25.9046 0.418448 23.1071 1.53775 18.6103C2.5082 14.6875 5.60906 12.6176 9.15242 12.6176H25.9113V11.1172H13.7245V6.62092L13.7248 6.62117Z"/><path fill="url(#paint1_linear)" d="M38.0937 42.5896C38.0937 45.9963 35.0696 47.7218 32.0005 48.5823C27.3831 49.8797 23.6773 49.6811 19.8183 48.5823C16.5954 47.6646 13.725 45.789 13.725 42.5896V31.3502C13.725 28.1155 16.4829 25.3535 19.8183 25.3535H32.0005C36.0582 25.3535 39.6195 21.925 39.6195 17.8606V12.6181H44.1873C47.735 12.6181 49.4052 15.1951 50.2805 18.6108C51.4991 23.3547 51.5533 26.9024 50.2805 30.6005C49.0484 34.1925 47.7304 36.5932 44.1873 36.5932H25.9116V38.0936H38.0937V42.5899V42.5896Z"/><path fill="#fff" d="M16.7714 5.8754C16.7714 4.63104 17.7915 3.62476 19.0556 3.62476C20.3148 3.62476 21.3397 4.63079 21.3397 5.8754C21.3397 7.11575 20.315 8.12153 19.0556 8.12153C17.792 8.12153 16.7714 7.1155 16.7714 5.8754ZM30.4788 43.3355C30.4788 42.0952 31.5035 41.0894 32.763 41.0894C34.0265 41.0894 35.0471 42.0954 35.0471 43.3355C35.0471 44.5799 34.0271 45.5862 32.763 45.5862C31.5038 45.5862 30.4788 44.5801 30.4788 43.3355Z"/><defs><linearGradient id="paint0_linear" x1="38.094" x2=".68" y1="14.225" y2="13.921" gradientUnits="userSpaceOnUse"><stop stop-color="#366A96"/><stop offset="1" stop-color="#3679B0"/></linearGradient><linearGradient id="paint1_linear" x1="51.215" x2="-22.847" y1="31.05" y2="31.05" gradientUnits="userSpaceOnUse"><stop stop-color="#FFC836"/><stop offset="1" stop-color="#FFE873"/></linearGradient></defs></svg>