<svg xmlns="http://www.w3.org/2000/svg" width="49" height="44" fill="none" viewBox="0 0 49 44"><path fill="#00D8FF" d="M24.634 26.1789C26.9634 26.1789 28.8517 24.2906 28.8517 21.9612C28.8517 19.6319 26.9634 17.7436 24.634 17.7436C22.3047 17.7436 20.4164 19.6319 20.4164 21.9612C20.4164 24.2906 22.3047 26.1789 24.634 26.1789Z"/><path fill-rule="evenodd" stroke="#00D8FF" stroke-width="2.734" d="M24.6341 13.3859C30.2969 13.3859 35.5574 14.1984 39.5238 15.5639C44.3028 17.2092 47.2411 19.703 47.2411 21.9612C47.2411 24.3144 44.1271 26.9637 38.9951 28.6641C35.1152 29.9496 30.0095 30.6206 24.6341 30.6206C19.1228 30.6206 13.904 29.9907 9.98036 28.65C5.01624 26.9532 2.02631 24.2696 2.02631 21.9612C2.02631 19.7214 4.83179 17.2468 9.5436 15.604C13.5248 14.216 18.9153 13.3859 24.6333 13.3859H24.6341Z" clip-rule="evenodd"/><path fill-rule="evenodd" stroke="#00D8FF" stroke-width="2.734" d="M17.169 17.6982C19.998 12.7928 23.3298 8.64168 26.4943 5.88782C30.3069 2.56983 33.9352 1.27042 35.8913 2.39841C37.9299 3.57399 38.6692 7.59524 37.5784 12.8903C36.7545 16.8936 34.7844 21.6516 32.0989 26.3081C29.3456 31.0824 26.1929 35.2887 23.0715 38.017C19.1218 41.4697 15.3033 42.7192 13.3036 41.5659C11.3633 40.4478 10.6212 36.7806 11.5521 31.8781C12.3386 27.7358 14.3123 22.6516 17.1681 17.6982L17.169 17.6982Z" clip-rule="evenodd"/><path fill-rule="evenodd" stroke="#00D8FF" stroke-width="2.734" d="M17.1761 26.3207C14.3391 21.4208 12.4075 16.4601 11.6013 12.3433C10.6307 7.38304 11.3169 3.59055 13.2713 2.45928C15.3078 1.28025 19.1609 2.64794 23.2035 6.23747C26.2601 8.95132 29.3986 13.0336 32.0919 17.6858C34.8531 22.4555 36.9227 27.2877 37.7277 31.3544C38.7464 36.5007 37.9219 40.4328 35.9241 41.5893C33.9857 42.7115 30.4384 41.5234 26.656 38.2685C23.4602 35.5185 20.0411 31.2692 17.1761 26.3206V26.3207Z" clip-rule="evenodd"/></svg>