<svg xmlns="http://www.w3.org/2000/svg" width="40" height="42" fill="none" viewBox="0 0 40 42"><path fill="#000" d="M20 0C8.95161 0 0 9.39919 0 21C0 32.6008 8.95161 42 20 42C31.0484 42 40 32.6008 40 21C40 9.39919 31.0484 0 20 0ZM24.25 7.875C24.9597 6.5879 26.5323 6.13911 27.7581 6.88427C28.9919 7.62944 29.4113 9.28064 28.7016 10.5762C27.9919 11.8633 26.4194 12.3121 25.1935 11.5669C23.9597 10.8133 23.5403 9.1621 24.25 7.875ZM7.04839 23.7012C5.62903 23.7012 4.47581 22.4903 4.47581 21C4.47581 19.5097 5.62903 18.2988 7.04839 18.2988C8.46774 18.2988 9.62097 19.5097 9.62097 21C9.62097 22.4903 8.46774 23.7012 7.04839 23.7012ZM9.31452 23.9637C11.1129 22.448 11.121 19.569 9.31452 18.0448C10.0081 15.2673 11.6613 12.9048 13.871 11.3468L15.7823 14.7C11.629 17.7738 11.629 24.2262 15.7823 27.3L13.871 30.6532C11.6613 29.1036 10.0161 26.7327 9.31452 23.9637ZM27.7581 35.1157C26.5242 35.8609 24.9597 35.4206 24.25 34.125C23.5403 32.8294 23.9597 31.1782 25.1935 30.4331C26.4194 29.6879 27.9919 30.1282 28.7016 31.4238C29.4113 32.7194 28.9919 34.3706 27.7581 35.1157ZM27.7823 29.2306C25.629 28.3585 23.2581 29.7895 22.9032 32.1944C22.4839 32.3129 18.9597 33.4052 15.1048 31.3984L16.9194 27.9859C21.5161 30.2298 26.871 26.9952 27.3145 21.6859L31.0323 21.7452C30.8468 24.6665 29.6371 27.2915 27.7823 29.2306ZM27.3065 20.3141C26.871 15.0641 21.5564 11.7448 16.9113 14.0141L15.0968 10.6016C18.9597 8.59476 22.4758 9.6871 22.8952 9.80565C23.25 12.202 25.621 13.6415 27.7742 12.7694C29.6371 14.7085 30.8387 17.3335 31.0161 20.2633L27.3065 20.3141Z"/></svg>