<svg xmlns="http://www.w3.org/2000/svg" width="38" height="38" fill="none" viewBox="0 0 38 38"><path fill="#DD4814" d="M38 19C38 29.4928 29.4928 38 19 38C8.50725 38 0 29.4928 0 19C0 8.50725 8.50725 0 19 0C29.4928 0 38 8.50725 38 19Z"/><path fill="#fff" d="M6.08 16.4635C4.67875 16.4635 3.54231 17.5987 3.54231 19.0012C3.54231 20.4036 4.67756 21.5377 6.08 21.5377C7.48244 21.5377 8.61769 20.4012 8.61769 19C8.61769 17.5987 7.48125 16.4635 6.08 16.4635ZM24.1917 27.9941C22.9781 28.7066 22.5625 30.2456 23.2631 31.458C23.9638 32.6705 25.5134 33.0873 26.7271 32.3867C27.9407 31.686 28.3563 30.1364 27.6557 28.9227C26.9551 27.7091 25.4042 27.2959 24.1917 27.9941ZM11.59 19C11.5892 17.8107 11.8751 16.6387 12.4235 15.5834C12.972 14.5282 13.7667 13.6206 14.7404 12.9378L12.8868 9.83248C10.6333 11.3363 9.01126 13.616 8.32913 16.2379C9.13188 16.891 9.6425 17.8837 9.6425 19C9.6425 20.1162 9.1295 21.109 8.32913 21.7621C9.01431 24.4185 10.6661 26.6855 12.8868 28.1687L14.7416 25.0622C13.7679 24.3793 12.9731 23.4718 12.4247 22.4165C11.8763 21.3612 11.5904 20.1893 11.5912 19H11.59ZM19 11.59C20.8515 11.5901 22.6358 12.2834 24.0018 13.5333C25.3677 14.7831 26.2162 16.4991 26.3803 18.3433L29.9951 18.2899C29.8229 15.585 28.6569 13.0393 26.7211 11.1423C25.7569 11.5069 24.643 11.451 23.6811 10.8953C23.223 10.6316 22.8294 10.269 22.5293 9.8339C22.2291 9.39877 22.0299 8.90211 21.9462 8.38017C21.0188 8.12248 20.0212 7.97998 19 7.97998C17.2461 7.97998 15.5883 8.39204 14.1158 9.11998L15.8781 12.2787C16.8281 11.837 17.8849 11.59 18.9988 11.59H19ZM19 26.41C17.8837 26.41 16.8269 26.1606 15.8792 25.7212L14.117 28.88C15.5895 29.6091 17.2472 30.02 19.0012 30.02C19.9961 30.0197 20.9863 29.8847 21.945 29.6186C22.1112 28.5997 22.7169 27.6616 23.6788 27.1035C24.6406 26.5454 25.7569 26.4931 26.7188 26.8577C28.6545 24.9606 29.8206 22.4149 29.9927 19.7101L26.3768 19.6567C26.2127 21.5003 25.3647 23.2157 23.9995 24.4655C22.6343 25.7153 20.8509 26.409 19 26.41ZM24.1917 10.007C25.4054 10.7195 26.9562 10.292 27.6557 9.08079C28.3551 7.86954 27.9407 6.31629 26.7294 5.61567C25.5182 4.91504 23.9649 5.33067 23.2643 6.54548C22.5637 7.76029 22.9793 9.30879 24.1929 10.0094L24.1917 10.007Z"/></svg>